<?xml version="1.0" encoding="UTF-8" standalone="no"?>
<svg
   xmlns:dc="http://purl.org/dc/elements/1.1/"
   xmlns:cc="http://creativecommons.org/ns#"
   xmlns:rdf="http://www.w3.org/1999/02/22-rdf-syntax-ns#"
   xmlns:svg="http://www.w3.org/2000/svg"
   xmlns="http://www.w3.org/2000/svg"
   viewBox="0 0 200 68.887004"
   height="68.887001"
   width="200"
   xml:space="preserve"
   id="svg2"
   version="1.1"><metadata
     id="metadata8"><rdf:RDF><cc:Work
         rdf:about=""><dc:format>image/svg+xml</dc:format><dc:type
           rdf:resource="http://purl.org/dc/dcmitype/StillImage" /><dc:title></dc:title></cc:Work></rdf:RDF></metadata><defs
     id="defs6" /><g
     transform="matrix(1.3333333,0,0,-1.3333333,0,68.887048)"
     id="g10"><g
       transform="matrix(0.63288704,0,0,0.63288704,-214.40567,-210.18802)"
       id="g12270"><path
         id="path448"
         style="fill:#e7ebc9;fill-opacity:1;fill-rule:nonzero;stroke:none;stroke-width:0.1"
         d="m 464.322,411.016 c 3.449,0.005 6.903,-0.12 10.343,0.047 5.135,0.25 10.273,0.284 15.396,1.104 2.73,0.437 5.716,0.908 8.467,-0.451 -0.763,-0.891 -1.831,-0.828 -2.848,-0.918 -2.186,-0.444 -3.779,-1.035 -4.873,-3.621 -1.049,-2.475 -3.725,-4.251 -3.997,-7.347 -0.057,-0.639 -0.429,-1.235 -0.233,-1.935 1.187,-4.227 -0.849,-6.314 -5.315,-5.47 -1.442,0.272 -1.442,0.272 -3.158,-0.445 1.119,0.831 2.894,0.827 4.726,-0.144 1.705,-0.903 2.868,-2.436 4.264,-3.683 0.744,-0.665 0.081,-1.443 -0.821,-1.664 -2.263,-0.553 -4.502,-1.402 -6.875,-1.156 -3.711,0.385 -7.08,0.332 -8.489,-4.122 -0.298,-0.942 -1.43,-1.53 -2.514,-0.982 -0.84,0.424 -1.386,0.14 -1.984,-0.329 -0.295,-0.114 -0.466,0.318 -0.77,0.183 0.122,-0.229 0.468,-0.046 0.577,-0.315 0.313,-0.152 0.653,-0.141 0.976,-0.208 1.216,-0.253 2.725,-0.556 2.685,-1.998 -0.044,-1.616 -1.89,-2.033 -2.995,-2.842 -1.179,-0.862 -2.129,-0.102 -2.458,1.192 -0.447,1.759 -2.77,-0.119 -3.133,1.689 -0.654,-0.762 -1.778,-0.96 -2.296,-1.598 0.024,-0.535 0.096,-0.793 0.299,-0.857 3.95,-1.245 5.428,-4.425 3.431,-8.088 -0.629,-1.155 -0.326,-2.957 -2.172,-3.48 -0.832,-0.235 0.099,-0.592 0.228,-0.849 1.18,-2.372 0.571,-4.252 -1.499,-5.767 -0.429,-0.313 -0.457,-0.36 -0.311,-0.469 1.363,-1.015 1.768,-2.707 2.881,-3.956 2.985,-3.353 2.16,-7.479 1.416,-11.339 -0.288,-1.49 0.014,-3.428 -1.605,-4.537 -3.545,-0.127 -7.061,-0.126 -10.485,1.086 -1.584,0.562 -3.301,0.135 -4.955,0.214 -0.546,1.72 -1.635,2.624 -3.509,2.287 -1.054,-0.189 -2.086,-0.57 -3.178,-0.251 -0.49,0.723 -1.321,0.922 -2.025,1.315 -0.904,4.078 -4.757,3.357 -7.426,4.567 -1.049,4.762 -2.217,5.785 -6.915,5.999 -1.23,0.056 -2.442,0.128 -3.627,0.519 -0.764,0.252 -1.458,1.497 -2.33,-0.308 -0.478,-0.989 -1.708,0 -2.165,0.977 0.35,-2.048 -0.118,-4.094 -0.809,-6.001 -0.775,-2.138 -2.801,-2.267 -5.045,-0.564 0.202,0.77 0.858,1.261 1.201,1.943 0.407,0.806 0.751,1.654 0.112,2.466 -0.555,0.704 -1.354,0.598 -2.121,0.391 -2.127,-0.573 -3.6,-0.354 -2.985,2.433 0.446,2.02 -1.833,1.903 -2.442,3.098 -0.57,1.197 -0.516,2.518 -0.755,3.78 -0.088,0.985 0.254,2.041 1.167,2.155 2.593,0.321 5.288,1.439 7.87,-0.249 0.727,1.503 -0.262,2.463 -1.436,3.443 -0.862,0.718 -1.161,1.697 -0.256,2.608 0.949,0.956 1.803,0.497 2.547,-0.366 0.73,-0.848 1.501,-1.665 2.526,-2.146 1.109,-0.521 2.091,-1.356 3.26,0.305 0.958,1.363 2.455,1.024 3.566,-0.457 -0.581,2.145 -1.837,1.655 -3.012,0.947 -1.712,-1.032 -2.959,-0.227 -4.167,0.88 -0.677,0.622 -1.298,1.295 -0.708,2.303 0.587,1.002 1.728,2.277 2.55,1.669 2.212,-1.638 3.856,0.677 6.087,0.041 -0.783,0.875 -1.404,0.637 -1.802,0.399 -1.909,-1.147 -3.345,-0.899 -4.781,0.925 -1.763,2.243 -3.82,0.748 -5.666,-0.048 -0.983,-0.424 -1.855,-1.691 -2.953,-0.979 -1.149,0.745 -0.031,2.051 -0.181,3.104 0.162,2.775 2.371,4 4.181,5.536 1.243,1.054 2.222,2.409 3.658,3.247 3.011,0.609 5.897,1.064 9.005,-0.23 1.714,-0.713 3.98,-0.045 6.343,-0.803 -0.697,2.187 -2.007,2.405 -3.493,2.351 -2.745,-0.099 -5.466,-0.512 -8.218,-0.581 -0.824,-0.02 -1.545,-0.15 -2.061,0.578 -0.576,0.816 -0.091,1.513 0.455,2.062 1.058,1.065 0.59,2.256 0.416,3.438 0.126,1.021 0.538,1.935 1.263,2.64 0.812,0.787 1.83,1.083 2.448,-0.125 1.624,-3.173 4.594,-1.755 7.018,-2.196 0.146,2.941 3.722,2.527 4.679,4.817 0.517,1.237 1.349,2.594 3.03,2.789 0.31,-0.042 0.59,-0.157 0.846,-0.334 2.343,-0.637 3.747,-2.631 5.254,-4.204 1.182,-1.235 2.521,-2.066 3.927,-3.124 -1.843,1.935 -0.004,2.897 1.236,4.154 -0.951,-0.147 -1.21,-0.672 -1.594,-1.043 -0.689,-0.664 -1.409,-1.823 -2.432,-0.896 -0.959,0.869 -0.572,2.137 0.227,3.014 1.442,1.583 3.583,2.199 5.224,3.535 0.319,0.258 -0.143,0.078 0.301,0.127 0.601,0.067 1.345,-0.1 1.4,-0.633 0.29,-2.842 5.853,-1.493 4.401,-5.614 -0.023,-0.066 -0.2,-0.079 -0.305,-0.116 0.092,-0.001 0.184,-0.002 0.367,-0.004 1.303,1.166 -1.792,3.738 1.176,4.303 1.751,0.334 3.888,0.312 4.971,-1.147 1.644,-2.215 -2.163,-3.154 -1.634,-5.258 0.379,0.088 0.498,0.533 0.726,0.905 2.386,3.922 5.36,3.922 7.741,-0.073 1.032,-1.732 -0.692,-2.238 -1.512,-1.85 -3.645,1.726 -5.109,-3.807 -8.566,-2.405 -0.251,0.102 -0.247,0.186 -0.187,-0.083 0.199,-0.892 1.055,-1.725 -0.407,-2.407 -0.743,-0.346 -1.899,0.199 -2.41,-1.477 1.762,2.21 3.514,0.663 5.008,0.406 1.886,-0.325 2.467,3.092 4.482,1.194 -0.487,0.414 -1.166,0.739 -0.735,1.579 0.7,1.365 1.901,2.463 3.23,2.752 2.998,0.652 5.095,1.296 3.482,5.183 -0.494,1.19 1.386,1.635 3.143,1.592 -1.538,0.845 -2.568,0.277 -3.64,-0.056 -1.869,-0.58 -5.106,1.352 -5.439,3.233 -0.143,0.816 0.039,1.869 0.907,1.89 2.18,0.054 4.917,2.222 5.958,-0.849 -0.775,0.6 -0.445,1.441 0.682,2.424 1.288,1.122 0.634,2.131 -0.746,2.326 -2.747,0.387 -4.1,3.083 -6.915,3.663 -2.138,0.44 0.178,1.109 0.614,1.64" /><path
         id="path450"
         style="fill:#dde2b3;fill-opacity:1;fill-rule:nonzero;stroke:none;stroke-width:0.1"
         d="m 461.665,336.661 c 0.356,1.679 0.519,3.374 0.97,5.064 0.536,2.008 0.475,4.278 0.631,6.41 0.093,1.291 -1.305,2.966 -2.214,4.204 -0.736,1.002 -1.938,1.515 -1.938,3.104 0.001,0.963 -1,0.545 -1.593,0.516 -0.424,-0.021 -0.961,-0.272 -1.084,0.303 -0.137,0.636 0.292,1.038 0.939,1.093 1.223,0.104 2.418,0.06 2.891,1.652 0.671,2.26 0.628,2.597 -1.468,4.313 -0.339,0.279 -0.681,0.583 -0.701,1.097 0.627,0.608 1.201,0.09 1.812,-0.087 0.889,-0.256 1.705,-0.427 0.946,0.997 -0.572,1.074 0.622,1.194 1.066,1.729 1.474,1.77 1.25,2.446 -1.084,3.41 0.074,0.198 0.112,0.422 0.229,0.591 0.42,0.601 1.826,0.232 1.606,1.331 -0.206,1.034 -1.107,1.563 -2.192,1.763 -0.883,0.163 -1.649,-0.773 -2.534,-0.24 -0.702,1.115 0.567,2.095 0.108,3.256 -0.211,0.535 0.499,0.803 1.155,0.424 1.235,-0.713 1.692,-0.437 1.082,0.964 -0.13,0.299 -0.335,0.637 0.06,0.807 0.447,0.192 1.023,0.034 1.087,-0.432 0.197,-1.442 0.567,-1.735 2.031,-1.001 1.182,0.592 2.188,-0.093 1.879,-1.691 -0.111,-0.572 -0.273,-1.126 0.544,-1.258 0.509,-0.082 0.953,0.186 1.009,0.647 0.181,1.472 1.94,0.847 2.478,1.89 -0.573,1.007 -1.493,1.269 -2.5,1.359 -0.817,0.072 -1.142,0.576 -1.217,1.319 l 10e-4,0.002 c 1.861,0.006 0.19,1.261 0.42,1.762 1.109,0.117 1.465,-0.796 2.187,-1.048 1.227,-0.427 2.689,0.513 2.2,1.676 -0.56,1.329 0.161,1.727 0.873,2.032 1.626,0.695 3.383,1.046 4.885,2.087 0.534,0.37 1.263,0.159 1.909,-0.172 1.679,-0.862 3.579,-0.598 5.094,0.003 1.174,0.467 2.362,0.657 4.252,0.815 -1.583,1.064 -3.093,1.027 -3.464,2.687 -0.233,1.041 -1.783,1.187 -2.718,1.771 -1.319,0.821 -1.867,-0.178 -2.787,-0.839 -0.743,-0.533 -2.015,-0.327 -3.217,-0.469 2.195,2.799 3.757,3.094 9.05,1.843 0.695,1.284 1.086,2.865 2.979,3.523 -0.726,0.545 -1.504,0.85 -1.849,1.654 -0.438,1.02 0.139,1.715 0.515,2.495 0.192,0.396 0.739,0.857 0.647,1.12 -0.952,2.687 1.039,3.748 2.654,5.054 1.092,0.883 1.839,1.873 1.224,3.453 -0.197,0.502 0.336,1.809 0.453,1.646 1.709,-2.371 2.748,1.221 4.186,0.396 0.759,-0.517 0.521,-1.505 1.15,-2.298 1.461,-1.845 -1.1,-2.449 -2.398,-3.345 0.855,-0.691 1.909,-0.628 2.781,-1.049 1.093,-0.525 2.457,-0.885 2.523,-2.331 0.065,-1.477 -1.622,-1.211 -2.431,-1.95 0.882,-1.263 2.35,-1.072 3.528,-1.514 1.379,-0.518 2.836,-0.907 2.538,-2.881 -1.925,-4.15 -6.039,-2.88 -9.294,-3.708 -0.622,-0.158 -1.329,0.002 -1.95,-0.614 3.204,0.188 5.948,-2.562 9.563,-0.787 1.814,0.892 2.159,-1.662 2.889,-2.931 -0.214,-1.615 -1.524,-1.419 -2.559,-1.407 -1.694,0.021 -2.909,-1.006 -4.243,-1.739 -1.065,-0.585 -1.612,-1.64 -1.116,-2.835 1.575,-3.796 2.166,-8.139 6.028,-10.686 1.158,-0.763 1.607,-2.095 1.71,-3.479 0.082,-1.094 -0.083,-2.273 1.183,-2.874 0.246,-0.204 0.428,-0.455 0.566,-0.741 0.188,-1.712 -0.308,-3.577 1.125,-5.009 -1.663,-1.282 -0.271,-2.56 0.025,-3.823 0.418,-1.788 2.13,-2.94 2.542,-4.648 0.441,-1.826 1.258,-1.962 2.813,-1.479 1.635,0.507 3.424,0.841 4.095,-1.434 0.309,-1.048 0.662,-2.341 -0.207,-3.187 -0.876,-0.855 -1.555,0.345 -2.269,0.722 -1.418,0.748 -1.902,0.012 -2.471,-1.181 -1.676,-3.527 -2.122,-3.62 -5.104,-1.261 -0.923,0.729 -1.543,0.734 -2.11,-0.334 -0.468,-0.883 -0.812,-1.842 -1.46,-2.618 -0.585,-0.703 -1.267,-1.354 -2.278,-0.941 -1.138,0.464 -1.74,1.381 -1.701,2.618 0.038,1.2 0.592,1.888 1.992,1.526 -2.153,2.031 -2.252,2.024 -3.816,-0.168 -2.132,-2.988 -5.486,-3.224 -8.089,-0.442 -0.921,0.986 -1.657,2.092 -3.279,2.302 0.884,-1.637 0.171,-2.874 -0.926,-4.01 -1.667,-0.59 -3.359,-0.965 -5.138,-1.184 -2.265,-0.278 -4.715,-0.515 -6.365,-2.408 -1.381,-1.586 -3.231,0.016 -4.655,-0.895 -2.228,-1.091 -4.456,0.17 -6.684,-0.002" /><path
         id="path452"
         style="fill:#e1e1b0;fill-opacity:1;fill-rule:nonzero;stroke:none;stroke-width:0.1"
         d="m 339,382.875 c -0.469,2.848 0.238,5.15 2.641,7.023 2.676,2.087 2.047,5.452 2.634,8.308 0.232,1.122 0.217,2.209 1.424,2.762 3.115,1.107 6.179,2.463 9.092,3.909 4.497,2.233 8.329,1.333 12.306,-0.786 0.832,-2.778 2.249,-4.635 5.613,-4.108 1.043,0.163 2.22,-0.366 3,-1.231 1.269,-1.405 2.677,-1.352 4.216,-0.583 1.115,0.294 2.222,0.627 3.396,0.515 2.951,-1.677 1.624,-3.56 -0.064,-5.729 3.906,-0.586 3.65,-3.171 3.097,-5.908 -0.491,-2.431 -0.22,-4.836 0.315,-7.226 0.119,-1.017 0.185,-2.031 1.634,-2.029 0.828,0.001 1.591,-0.331 1.673,-1.283 0.075,-0.874 -0.502,-1.53 -1.245,-1.801 -3.293,-1.205 -4.497,-2.81 -2.119,-6.185 0.933,-1.323 -0.927,-1.828 -1.977,-1.544 -1.624,0.441 -3.099,1.758 -4.592,-0.371 -0.367,-0.524 -1.53,-0.004 -2.179,0.372 -2.17,1.26 -4.212,-0.034 -6.301,-0.211 -1.316,-0.113 -0.678,-1.272 -0.617,-1.798 0.395,-3.362 -0.431,-6.639 -0.511,-9.951 -0.113,-4.679 -2.884,-7.733 -5.903,-10.725 -1.164,-1.155 -2.846,-0.123 -4.09,-0.957 -1.425,-0.868 -3.024,-0.723 -4.569,-0.687 -2.652,0.061 -3.108,0.505 -3.489,3.269 -0.159,1.154 -0.547,2.186 -1.336,2.999 -0.798,0.821 -1.367,1.753 -1.805,2.786 -0.359,0.847 -0.862,1.887 -1.689,1.96 -2.48,0.22 -3.222,1.946 -3.957,3.857 -0.601,1.56 -2.525,1.805 -3.349,3.177 0.086,2.147 1.788,2.532 3.344,3.127 1.02,0.39 2.301,0.787 2.349,2.04 0.043,1.115 -1.314,0.94 -2.037,1.346 -2.322,1.307 -3.049,3.3 -2.198,6.235 0.37,1.278 1.161,2.391 1.462,3.694 0.582,2.521 -0.364,4.07 -2.934,4.725 -0.61,0.155 -0.904,0.575 -1.235,1.009" /><path
         id="path454"
         style="fill:#ebedd0;fill-opacity:1;fill-rule:nonzero;stroke:none;stroke-width:0.1"
         d="m 436.175,398.292 c -1.376,0.036 -1.788,-1.069 -2.408,-1.977 -1.256,-1.838 -2.308,-3.971 -5.012,-3.724 -0.382,-1.322 1.392,-1.264 1.099,-2.318 -0.175,-0.075 -0.354,-0.218 -0.53,-0.213 -1.364,0.033 -2.623,0.329 -4.119,0.019 -1.559,-0.323 -3.427,0.834 -5.155,1.357 l -0.198,0.26 c -0.488,0.578 1.353,1.483 -0.122,1.752 -1.061,0.196 -1.142,-1.147 -1.651,-1.815 -0.197,-0.259 -0.445,-0.478 -0.671,-0.715 -2.593,-0.443 -5.158,0.539 -7.773,0.122 -0.746,-0.119 -1.532,0.008 -2.23,-0.418 -2.899,-1.147 -4.726,1.408 -7.102,2.074 -0.446,0.125 -0.687,0.615 -0.586,1.087 0.309,1.45 1.299,2.571 2.02,3.805 1.114,1.905 2.52,0.675 3.73,0.044 1.855,-0.967 4.034,-0.441 5.871,-1.396 0.938,-0.487 1.006,0.56 1.509,0.833 1.052,0.573 1.314,2.229 2.959,1.998 -0.507,1.262 -1.756,1.598 -2.508,2.444 -0.124,0.302 -0.129,0.606 0,0.91 0.677,0.664 1.651,0.626 2.438,1.032 3.827,1.976 3.856,1.961 4.444,-2.382 0.468,0.805 0.796,1.529 1.541,2.026 2.007,1.34 3.425,2.826 0.449,4.737 -0.649,0.417 -1.129,1.161 -0.65,2.023 0.456,0.823 1.193,0.74 2.036,0.643 2.669,-0.308 4.974,-2.485 7.992,-1.322 0.809,0.312 1.121,-1.007 0.544,-1.703 -1.739,-2.1 -0.107,-3.334 1.01,-4.735 -0.607,1.769 -0.039,3.579 -0.113,5.352 -0.062,1.537 0.769,2.912 2.809,1.936 1.352,-0.647 2.584,-0.496 3.734,0.463 1.443,1.2 3.042,1.09 4.69,0.536 6.7,-0.004 13.4,-0.007 20.1,-0.011 0.067,-0.467 -1.507,-0.87 -0.195,-1.287 1.564,-0.498 3.192,-0.934 4.791,-0.741 0.559,-0.869 -0.473,-1.284 -0.213,-2.244 1.896,0.301 4.02,0.168 4.603,-2.065 0.394,-1.512 -1.469,-1.918 -2.442,-2.709 0.096,-0.185 0.146,-0.453 0.297,-0.539 0.58,-0.326 1.687,0.478 1.808,-0.849 0.052,-0.573 0.022,-1.168 -0.588,-1.414 -0.896,-0.36 -1.486,0.247 -2.005,0.833 -0.365,0.411 -0.611,0.927 -0.943,1.371 -0.584,0.781 -1.193,0.955 -1.854,0.056 -0.494,-0.672 -1.04,-1.2 -1.921,-0.481 -0.822,0.673 -1.214,0.217 -1.263,-0.619 -0.043,-0.749 0.284,-1.299 1.17,-1.246 0.805,0.047 1.595,0.93 2.46,0.08 -0.026,-1.23 -1.685,-0.619 -1.783,-1.606 -0.073,-0.315 0.037,-0.523 0.316,-0.523 0.661,0 1.375,-0.096 1.974,0.113 3.611,1.252 3.602,1.277 6.356,-1.793 -1.69,-0.219 -3.403,2.151 -4.734,-0.178 0.144,-0.821 1.295,-0.893 1.424,-1.706 0.134,-0.849 0.443,-1.896 -0.601,-2.367 -0.959,-0.433 -1.827,-0.813 -2.011,-1.99 -0.022,-0.142 -0.28,-0.325 -0.452,-0.355 -3.695,-0.656 -3.696,-0.653 -5.054,-1.995 0.44,-1.055 2.206,-0.396 2.409,-1.95 -1.562,-0.712 -2.807,1.539 -4.331,0.514 -0.347,-0.836 0.961,-0.872 0.787,-1.628 -2.475,-0.125 -4.323,0.198 -5.92,0.962 -0.568,0.273 -1.13,0.287 -0.976,-0.61 0.074,-0.431 0.336,-0.826 0.452,-1.254 0.093,-0.346 -0.055,-0.646 -0.693,-0.948 -1.307,1.04 -1.749,2.475 -1.499,4.468 1.041,0.329 2.247,-1.68 3.23,0.361 -0.544,0.528 -1.91,0.935 -1.71,2.356 0.869,0.792 1.643,-0.107 2.435,-0.23 2.759,-0.431 3.687,0.279 3.805,3.114 1.88,-0.303 3.72,-0.916 5.708,-0.917 -0.101,1.262 -0.887,1.924 -1.739,1.806 -1.401,-0.194 -1.719,0.019 -1.397,1.459 0.15,0.667 -0.791,0.712 -1.273,0.471 -1.014,-0.506 -1.79,-1.322 -2.312,-2.338 -0.25,-0.488 -0.313,-1.096 -0.633,-1.519 -0.524,-0.693 -1.205,-1.621 -2.164,-0.796 -0.98,0.843 -0.865,1.727 0.477,2.253 1.017,0.399 0.781,1.17 0.516,1.955 -0.322,0.951 0.089,1.226 0.986,0.977 0.422,-0.117 0.975,-0.334 0.838,0.431 -0.069,0.388 -0.389,0.84 -0.728,1.048 -0.764,0.471 -1.725,-0.536 -2.522,0.266 -0.691,0.696 -1.464,0.495 -2.099,-0.051 -0.917,-0.787 0.031,-1.299 0.342,-1.947 0.567,-1.176 0.263,-1.423 -2.335,-2.038 -0.371,0.928 0.916,0.595 0.929,1.22 0.014,0.716 -0.341,1.298 -0.716,1.832 -0.657,0.936 -0.7,0.909 -3.112,-0.147 -0.294,1.141 -0.244,2.39 -1.155,3.495 -1.554,-0.229 -2.05,-2.149 -3.683,-2.436 -1.718,-0.301 -2.706,-1.415 -2.4,-3.306 1.006,-0.45 1.441,0.373 1.561,0.835 0.564,2.169 2.084,1.929 3.732,1.66 0.232,-1.112 -0.758,-1.454 -1.298,-2.047 -0.506,-0.556 -1.493,-0.579 -1.693,-1.501 0.108,-0.186 0.197,-0.386 0.324,-0.557 0.49,-0.658 2.255,-0.308 1.736,-1.53 -0.473,-1.113 -1.771,-0.185 -2.618,-0.017 -0.679,0.134 -1.247,0.876 -1.841,1.376 -1.477,1.243 -2.5,3.03 -4.421,3.736 -1.01,0.371 0.566,1.192 -0.31,1.56 -0.796,0.335 -1.165,-0.743 -1.75,-0.616 -1.484,0.321 -0.266,1.146 -0.226,1.758" /><path
         id="path456"
         style="fill:#e1e6bc;fill-opacity:1;fill-rule:nonzero;stroke:none;stroke-width:0.1"
         d="m 360.443,343.338 c 4.896,1.135 6.877,5.163 9.031,9.045 0.655,1.18 -0.247,2.283 0.117,3.552 0.938,3.275 0.37,6.728 0.628,10.098 0.025,0.339 -0.519,0.69 -0.672,1.083 -0.103,0.262 -0.073,0.66 0.059,0.911 0.268,0.505 0.69,0.377 1.137,0.157 0.861,-0.426 1.956,-2.146 2.41,0.377 0.024,0.126 0.868,0.288 1.207,0.143 1.818,-0.773 4.018,-0.188 5.573,-2.113 0.429,3.25 0.975,3.55 3.126,1.995 1.002,-0.725 1.849,-1.623 3.189,-0.647 -0.227,1.274 -2.474,0.002 -2.027,1.404 0.389,1.227 -0.537,2.566 0.697,3.719 0.946,0.884 0.985,2.786 3.126,2.025 0.578,-0.205 1.346,0.621 1.541,1.777 -1.61,0.279 -4.409,-0.697 -3.672,2.663 1.696,-0.203 2.979,0.091 3.838,1.914 0.622,1.322 2.04,2.014 3.663,1.876 0.789,-0.066 1.615,-0.134 1.786,1.336 -0.763,-1.705 -1.93,-1.437 -2.789,-0.79 -1.411,1.066 -1.351,2.824 -0.953,4.256 0.275,0.988 1.573,0.636 2.357,0.237 3.331,-1.694 7.197,-1.039 10.634,-2.654 1.951,-0.917 4.384,0.348 6.254,1.549 1.598,1.026 3.133,0.929 4.305,-0.139 1.075,-0.978 0.666,-2.432 -0.276,-3.567 -1.303,-1.828 -2.828,-3.457 -4.712,-4.673 -1.516,-0.977 -2.397,-2.277 -2.668,-4.029 -0.374,-0.857 -1.048,-1.288 -1.956,-1.389 -2.095,0.227 -3.614,-0.15 -2.984,-2.822 0.449,-1.905 -0.281,-3.238 -2.001,-4.099 -1.328,-0.663 -1.913,-2.167 -3.211,-2.878 -1.954,-0.489 -3.844,-1.199 -5.803,-1.669 -6.048,-1.376 -11.913,-3.324 -17.626,-5.726 -1.571,-1.332 -1.861,-3.277 -2.335,-5.089 -0.636,-2.428 -1.867,-4.263 -4.299,-5.142 l -0.004,-0.006 c -0.223,-0.221 -0.422,-0.467 -0.665,-0.669 -0.5,-1.529 -1.512,-2.199 -3.148,-2.026 -0.949,0.1 -1.917,0.013 -2.877,0.01" /><path
         id="path458"
         style="fill:#f0f0d8;fill-opacity:1;fill-rule:nonzero;stroke:none;stroke-width:0.1"
         d="m 391.269,362.772 c 2.012,0.437 3.818,1.808 6.033,1.342 2.467,1.043 4.358,2.39 5.357,5.238 0.56,1.591 2.084,3.015 2.694,4.804 0.755,-0.031 1.354,0.395 1.999,0.687 0.96,-0.834 -0.638,-1.571 -0.088,-2.402 0.825,-0.261 1.413,0.425 1.631,0.858 1.087,2.163 3.411,1.187 4.983,2.09 0.578,0.332 1.22,-0.192 1.647,-0.811 0.567,-0.821 1.236,-1.571 1.867,-2.348 0.412,-0.507 0.796,-0.806 1.086,0.112 0.172,0.551 0.707,0.394 1.11,0.513 2.905,0.855 2.904,0.862 4.102,-2.808 -1.805,1.511 -3.392,1.468 -4.897,0.156 -0.35,-0.305 -0.818,-0.641 -1.14,-0.182 -1.662,2.377 -2.676,0.785 -3.828,-0.587 0.234,-0.955 1.243,-1.16 1.788,-1.801 0.742,-0.874 1.729,-1.115 2.637,-0.275 1.219,1.128 2.748,0.51 4.549,1.304 -0.82,-1.887 -0.645,-3.354 -0.218,-4.772 -1.343,-0.367 -1.566,0.433 -1.8,1.171 -0.334,1.052 -0.718,1.858 -2.115,1.344 -1.863,-0.683 0.258,-1.643 -0.307,-2.506 -2.693,0.751 -5.52,1.288 -7.059,4.114 -0.352,0.645 -0.806,0.685 -1.324,0.229 -0.503,-0.442 -0.501,-0.974 -0.108,-1.47 0.201,-0.251 0.513,-0.418 0.781,-0.612 2.145,-1.556 2.221,-1.906 1.387,-4.236 -0.27,-0.756 -0.666,-1.148 -1.425,-1.09 -0.893,0.067 -1.156,0.478 -0.622,1.303 0.241,0.372 -0.071,0.577 -0.417,0.605 -0.442,0.037 -1.051,0.205 -1.309,-0.013 -1.426,-1.208 -3.061,0.455 -4.502,-0.421 -0.624,-0.379 -1.048,-0.797 -1.102,-1.536 -3.46,-1.535 -6.583,-3.708 -10.012,-5.296 -1.242,-0.52 -1.088,-2.083 -2.078,-2.791 -0.775,0.461 -0.518,1.979 -1.604,1.926 -2.108,-0.102 -4.048,1.294 -6.213,0.531 -2.167,-0.764 -3.736,-2.339 -5.434,-3.756 -0.419,-0.351 -0.29,-0.737 -0.266,-1.183 0.131,-2.456 -1.716,-3.697 -3.254,-5.097 -0.669,-0.608 -1.469,-0.41 -2.166,0.027 -1.393,0.87 -2.927,0.948 -4.495,0.895 2.448,2.177 3.713,4.93 4.202,8.148 0.158,1.038 0.711,2.08 1.836,2.568 0.913,0.699 1.935,0.905 3.089,1.032 5.344,0.591 10.467,1.936 15.005,4.996" /><path
         id="path460"
         style="fill:#dbdea8;fill-opacity:1;fill-rule:nonzero;stroke:none;stroke-width:0.1"
         d="m 502.525,396.282 c -0.075,1.371 -0.894,1.86 -2.168,2.06 -1.306,0.206 -2.594,0.589 -3.854,1.002 -0.929,0.304 -1.525,0.979 -1.228,2.049 0.306,1.098 1.108,0.886 1.874,0.583 0.583,-0.23 1.201,-0.226 1.469,0.322 0.419,0.855 -0.364,1.153 -0.949,1.418 -1.42,0.64 -2.863,1.221 -4.452,1.305 -0.576,0.03 -1.166,0.167 -1.231,0.856 -0.084,0.914 0.61,1.102 1.308,1.097 1.483,-0.009 2.46,0.634 3.066,2.003 -1.099,0.596 -1.706,-0.628 -2.837,-0.314 0.316,1.139 1.79,1.718 1.634,3.023 1.124,0.009 2.247,0.019 3.371,0.03 4.759,0.335 9.419,-1.055 14.184,-0.785 2.63,0.149 5.272,0.07 7.909,0.094 0.218,-0.235 0.398,-0.495 0.544,-0.78 -0.082,-2.867 0.028,-5.662 1.148,-8.421 0.971,-2.396 -1.797,-3.966 -1.935,-6.305 -0.046,-0.782 -1.721,-0.573 -2.671,-0.124 -4.019,1.897 -4.148,4.891 0.306,8.271 -2.95,-1.091 -4.31,-2.767 -5.679,-4.583 -1.917,-2.541 -4.172,-4.754 -7.62,-5.085 -0.363,0.227 -0.649,0.539 -0.907,0.873 -0.254,0.288 -0.522,0.569 -0.817,0.822 -0.197,0.161 -0.352,0.359 -0.465,0.589" /><path
         id="path462"
         style="fill:#ecefd6;fill-opacity:1;fill-rule:nonzero;stroke:none;stroke-width:0.1"
         d="m 444.222,411.027 c -1.299,-0.093 -2.797,0.412 -3.768,-0.808 -1.914,-2.407 -3.974,-1.591 -6.114,-0.446 -0.739,-0.929 -1.285,-2.093 -0.571,-3.059 0.929,-1.259 0.325,-1.937 -0.621,-2.525 0.577,-0.797 1.498,-0.251 1.873,-0.959 -1.727,-2.636 -2.108,-2.632 -3.523,0.038 -0.051,0.095 -0.04,0.224 -0.092,0.319 -1.521,2.782 -1.521,2.781 0.39,4.82 -0.499,0.662 -0.946,0.228 -1.351,-0.095 -1.273,-1.014 -2.732,-0.845 -3.637,0.165 -1.094,1.219 -2.743,0.614 -3.809,1.644 -0.29,0.28 -0.845,-0.077 -1.088,-0.487 -0.195,-0.328 -0.031,-0.648 0.195,-0.899 0.222,-0.245 0.509,-0.431 0.731,-0.676 0.643,-0.713 2.461,0.111 2.295,-1.337 -0.198,-1.735 -0.901,-3.458 -2.671,-4.328 -0.54,-0.265 -1.423,-0.015 -1.181,-1.115 0.175,-0.791 0.148,-1.898 -0.827,-1.721 -0.746,0.134 -1.89,0.906 -1.291,2.247 0.49,1.093 -0.096,1.899 -0.829,3.063 -1.087,-2.253 -2.808,-2.885 -4.944,-2.556 -1.809,2.729 -4.841,3.296 -7.618,4.322 -1.092,0.404 -1.992,0.732 -2.79,-0.689 -1.292,-2.299 -2.992,-1.773 -4.71,-0.342 -1.567,1.304 -2.806,2.902 -5.509,1.955 -1.578,-0.553 -2.525,1.022 -1.485,2.815 0.546,-0.104 1.162,-0.429 1.627,-0.28 4.269,1.36 8.617,-0.082 12.845,0.372 7.013,0.753 14.023,0.257 21.014,0.662 2.624,0.152 5.289,0.69 7.922,0.771 3.178,0.098 6.524,1.127 9.537,-0.871" /><path
         id="path464"
         style="fill:#ecedd0;fill-opacity:1;fill-rule:nonzero;stroke:none;stroke-width:0.1"
         d="m 391.277,410.373 c 0.071,-0.548 0.012,-1.158 0.241,-1.629 0.392,-0.809 1.077,-1.289 1.755,-0.281 1.032,1.53 1.993,1.104 2.912,-0.026 0.927,-1.138 2.298,-1.7 3.305,-2.787 1.218,-1.314 2.928,-0.626 2.817,1.167 -0.112,1.789 0.842,1.686 1.777,1.355 1.462,-0.519 3.08,-0.813 4.358,-1.562 1.498,-0.878 2.828,-1.057 5.113,-0.088 -1.39,-1.884 -1.223,-3.115 -0.166,-4.21 0,-0.222 0,-0.445 0,-0.667 -1.663,-0.856 -3.576,-0.933 -5.274,-1.8 -0.958,-0.49 -2.44,-0.62 -2.813,1.149 -0.035,0.167 0.136,0.545 0.048,0.432 -1.429,-1.85 -3.363,-0.553 -5.021,-0.843 -1.325,-0.231 -1.86,-0.859 -2,-2.185 -0.145,-1.38 -0.68,-2.633 -2.446,-2.614 -3.274,-0.466 -6.236,0.77 -9.263,1.674 -1.113,0.333 -2.108,1.182 -3.391,0.834 -1.035,-0.625 -2.173,-0.744 -3.347,-0.691 0.933,1.894 1.837,3.758 -0.192,5.592 -0.462,0.419 -0.837,1.169 -0.336,1.807 0.553,0.702 1.375,0.627 2.16,0.394 0.436,-0.13 0.97,-0.359 1.084,-0.731 1.154,-3.793 3.459,-2.958 5.716,-1.391 -1.517,-0.003 -3.385,-0.312 -4.212,1.953 -0.42,1.146 -1.816,1.16 -2.811,1.623 -0.989,0.46 -1.752,1.315 -1.489,2.366 0.349,1.4 1.643,0.762 2.53,0.655 0.971,-0.116 1.891,-0.749 2.902,-0.168 l -0.005,-0.007 c 0.374,0.374 0.99,0.24 1.348,0.645 0.783,0.005 1.528,0.151 2.272,0.431 0.851,0.32 1.737,0.45 2.428,-0.397" /><path
         id="path466"
         style="fill:#dde2b3;fill-opacity:1;fill-rule:nonzero;stroke:none;stroke-width:0.1"
         d="m 570.853,394.933 c 0.705,-3.037 1.655,-5.973 3.009,-8.804 1.255,-2.623 1.856,-5.42 1.749,-8.404 -0.094,-2.658 0.412,-5.447 0.023,-7.976 -0.62,-4.028 -1.044,-8.016 -0.983,-12.075 0.002,-0.104 -0.058,-0.216 -0.11,-0.313 -2.041,-3.768 -4.351,-7.386 -6.061,-11.343 -0.447,-1.034 -1.601,-1.672 -2.895,-2.049 -2.778,-0.811 -5.414,-2.106 -7.38,-4.284 -2.161,-2.396 -4.642,-2.657 -7.434,-1.616 -0.906,0.338 -2.016,0.311 -2.649,1.25 0.194,0.3 0.447,0.537 0.756,0.715 5.063,2.729 10.67,4.295 15.617,7.272 2.162,1.301 3.209,3.274 3.506,5.779 0.421,3.543 0.975,7.072 1.317,10.624 0.156,1.61 0.669,3.034 1.471,4.393 2.424,4.583 3.58,9.212 2.154,14.519 -0.571,2.123 -1.956,3.015 -3.109,4.373 -0.86,1.013 -2.175,1.537 -2.903,2.699 -1.281,2.366 -1.234,4.613 0.609,6.69 1.358,1.531 0.845,3.576 1.465,5.312 0.162,0.357 0.426,0.607 0.788,0.753 1.496,-1.078 0.491,-2.632 0.731,-3.948 0.214,-1.173 -0.285,-2.422 0.329,-3.567" /><path
         id="path468"
         style="fill:#dfe1b0;fill-opacity:1;fill-rule:nonzero;stroke:none;stroke-width:0.1"
         d="m 548.793,339.33 c -0.224,-0.004 -0.447,-0.008 -0.671,-0.012 -0.303,0.143 -0.622,0.436 -0.906,0.405 -4.136,-0.462 -8.354,-0.469 -12.295,-2.051 -0.705,-0.283 -1.334,-0.735 -2.056,-1.043 -2.361,-1.011 -4.629,0.088 -6.904,0.228 -1.542,0.096 -2.976,0.26 -4.561,0.019 -2.24,-0.342 -4.619,-0.853 -6.814,0.416 -0.504,0.407 -1.187,0.751 -0.564,1.563 1.398,0.808 2.545,-0.29 3.811,-0.501 1.135,-0.191 2.308,-0.224 3.056,0.784 0.883,1.19 0.023,2.188 -0.796,2.883 -2.594,2.203 -0.781,4.976 -1.021,7.459 -0.088,0.915 1.041,0.963 1.841,0.646 0.832,-0.33 1.523,-0.911 2.275,-1.38 2.926,-1.821 5.796,-2.918 9.367,-1.325 2.852,1.271 5.895,1.184 8.237,-1.513 0.18,-0.266 0.303,-0.558 0.378,-0.871 0.049,-0.438 0.041,-0.885 -0.127,-1.293 -0.977,-2.38 -0.074,-2.981 2.226,-2.479 1.392,0.303 2.826,0.341 4.239,-0.036 0.804,-0.379 1.517,-0.821 1.285,-1.899" /><path
         id="path470"
         style="fill:#e4e6be;fill-opacity:1;fill-rule:nonzero;stroke:none;stroke-width:0.1"
         d="m 409.373,346.69 c 3.358,-1.294 4.266,-0.654 4.522,2.462 0.153,1.878 0.915,3.672 -0.238,5.486 -0.147,0.231 0.203,0.596 0.586,0.645 0.465,0.06 0.874,-0.054 1.205,-0.409 0.593,-0.638 -0.271,-1.582 0.448,-2.165 0.236,-0.19 0.573,-0.346 0.865,-0.349 0.376,-0.003 0.502,0.338 0.55,0.699 0.115,0.856 -0.941,1.608 -0.011,2.793 1.189,-2.935 3.587,-3.322 6.245,-3.141 0.556,0.038 1.119,0.037 1.672,-0.012 2.456,-0.216 5.639,-3.062 5.92,-5.428 0.044,-0.374 -0.644,-0.834 -0.993,-1.255 0.418,-0.51 0.405,-1.263 -0.083,-1.423 -3.19,-1.053 -6.136,-3.858 -9.853,-1.549 -2.251,1.67 -4.13,1.695 -5.591,-1.077 -0.68,-1.293 -1.994,-1.983 -3.28,-2.615 -1.773,-0.009 -3.546,-0.019 -5.318,-0.028 -0.2,0.479 -0.021,0.968 0.369,1.11 3.1,1.124 2.037,2.828 0.685,4.596 0.034,1.089 0.213,2.153 1.404,2.528 0.534,0.169 0.993,-0.165 0.896,-0.868" /><path
         id="path472"
         style="fill:#efeed6;fill-opacity:1;fill-rule:nonzero;stroke:none;stroke-width:0.1"
         d="m 385.234,409.701 c -0.441,-0.855 -0.988,-1.613 -2.045,-0.892 -0.85,0.58 -1.629,1.17 -2.78,0.621 0.014,-1.046 0.209,-1.941 1.495,-2.084 2.034,-0.226 3.822,-0.726 3.38,-3.646 2.273,0.772 4.051,0.809 5.536,-0.811 -0.625,-0.934 -1.466,-0.541 -2.148,-0.554 -1.182,-0.021 -2.021,-0.345 -2.817,-1.361 -1.363,-1.742 -1.986,-1.529 -2.614,0.759 -0.299,1.092 -0.591,2.157 -1.498,2.882 -0.543,0.433 -1.216,0.493 -2.036,0.114 0.105,-1.195 1.314,-1.631 1.834,-2.516 1.048,-1.785 0.82,-2.718 -0.955,-3.929 -0.267,-0.181 -0.472,-0.453 -0.704,-0.683 -2.587,-1.656 -2.734,-1.775 -4.328,0.177 -1.157,1.416 -2.656,1.551 -4.08,1.554 -4.21,0.011 -4.261,-0.041 -4.37,4.296 0.722,0.896 1.767,0.744 2.738,0.846 1.494,0.155 3.415,-0.458 3.254,2.301 -0.049,0.831 1.237,1.145 2.126,1.246 1.591,0.18 1.928,0.427 1.984,1.652 2.672,1.056 5.349,1.047 8.028,0.028" /><path
         id="path474"
         style="fill:#e3e3b5;fill-opacity:1;fill-rule:nonzero;stroke:none;stroke-width:0.1"
         d="m 407.363,344.672 c 1.156,-0.015 1.734,-0.735 2.174,-1.696 0.532,-1.163 0.763,-2.115 -0.971,-2.333 -0.994,-0.126 -1.899,-0.493 -2.547,-1.319 -1.104,-0.012 -2.207,-0.022 -3.311,-0.033 -2.07,-0.643 -4.206,-0.349 -6.286,-0.241 -2.118,0.11 -3.639,1.074 -4.099,3.567 -0.401,2.175 -0.832,4.358 -1.299,6.521 -0.377,1.741 -0.462,3.177 1.308,3.941 1.746,0.753 3.138,-0.229 3.93,-1.666 1.438,-2.606 3.631,-3.809 6.458,-4.112 1.554,-0.856 2.088,-3.525 4.643,-2.629" /><path
         id="path476"
         style="fill:#f3f0e0;fill-opacity:1;fill-rule:nonzero;stroke:none;stroke-width:0.1"
         d="m 377.206,409.673 c 0.703,-1.563 1.262,-3.111 -0.422,-4.606 -0.995,0.69 0.771,1.689 -0.341,2.202 -1.214,0.56 -2.031,-0.286 -2.896,-0.618 -0.185,-1.13 1.142,-0.762 1.122,-1.673 -2.179,-2.125 -5.006,-1.046 -7.565,-1.35 -1.8,0.547 -3.66,0.851 -5.392,1.676 -1.912,0.911 -3.674,-0.061 -5.41,-0.81 -3.433,-1.479 -6.95,-2.707 -10.603,-3.526 0.525,0.796 1.408,1.057 2.203,1.412 1.372,0.612 2.332,1.522 3.023,2.905 1.409,2.821 3.942,3.427 6.902,3.409 3.173,-0.018 6.348,0.308 9.522,0.496 0.213,0.013 0.467,0.252 0.623,0.189 3.127,-1.272 6.154,0.33 9.234,0.294" /><path
         id="path478"
         style="fill:#e1d9af;fill-opacity:1;fill-rule:nonzero;stroke:none;stroke-width:0.1"
         d="m 339,382.875 c 1.072,-0.734 2.084,-0.579 3.001,0.518 0.465,-0.844 0.68,-1.523 1.121,-1.986 1.909,-2.003 1.197,-4.109 0.324,-6.214 -0.334,-0.805 -0.943,-1.439 -1.13,-2.378 -0.645,-3.237 0.142,-4.617 3.304,-5.324 0.721,-0.161 1.68,0.153 1.933,-0.882 0.217,-0.887 -0.492,-1.407 -1.008,-1.982 -0.769,-0.856 -1.742,-1.651 -2.811,-1.684 -1.727,-0.052 -2.492,-1.244 -3.484,-2.243 -1.534,0.357 -1.273,1.587 -1.279,2.667 -0.017,2.991 0.197,6.003 -0.073,8.971 -0.321,3.534 0.08,7.026 0.102,10.537" /><path
         id="path480"
         style="fill:#e5e6bd;fill-opacity:1;fill-rule:nonzero;stroke:none;stroke-width:0.1"
         d="m 546.09,413.026 c 0.668,0.02 1.389,-0.119 1.995,0.086 3.701,1.257 7.228,0.448 10.738,-0.765 3.276,0.278 5.318,-1.986 7.587,-3.735 0.753,-0.579 1.646,-1.262 0.935,-2.47 -0.868,-0.654 -1.857,-0.657 -2.841,-0.44 -5.802,1.277 -11.811,0.964 -17.601,2.284 -0.679,0.229 -1.335,0.612 -2.107,0.401 -0.729,-0.202 -1.444,-0.354 -1.806,0.582 -0.068,0.293 -0.085,0.588 -0.049,0.886 0.225,1.11 1.054,1.783 1.809,2.509 0.362,0.392 0.987,0.251 1.34,0.662" /><path
         id="path482"
         style="fill:#e7e8c2;fill-opacity:1;fill-rule:nonzero;stroke:none;stroke-width:0.1"
         d="m 468.349,336.663 c 0.549,0.738 1.36,0.626 2.128,0.65 0.553,0.018 1.091,0.044 1.581,0.384 3.519,2.449 3.522,2.448 8.774,3.038 1.207,0.137 2.141,1.964 3.592,0.582 3.89,1.244 3.89,1.244 6.85,-3.755 -3.072,-3.801 -6.292,-2.478 -9.538,-0.278 -0.399,0.182 -0.899,0.616 -1.182,0.505 -2.042,-0.809 -4.34,-0.096 -6.209,-0.746 -2.095,-0.729 -3.961,-0.807 -5.996,-0.38" /><path
         id="path484"
         style="fill:#e5e6be;fill-opacity:1;fill-rule:nonzero;stroke:none;stroke-width:0.1"
         d="m 403.321,346.681 c -0.996,0.018 -2.018,-0.099 -2.982,0.087 -1.512,0.291 -2.977,0.695 -3.669,2.416 -0.405,1.004 -1.125,1.898 -1.787,2.779 -0.612,0.814 -1.529,0.892 -2.411,0.569 -0.97,-0.355 -1.297,-1.21 -1.134,-2.16 0.502,-2.908 1.355,-5.734 1.735,-8.686 0.215,-1.666 2.069,-2.219 3.655,-2.33 1.985,-0.137 3.985,-0.053 5.979,-0.065 -2.781,-1.104 -5.584,-0.779 -8.412,-0.187 -1.254,0.264 -1.864,1.05 -2.259,2.164 -0.928,2.62 -1.74,5.255 -1.443,8.091 -0.483,0.9 -0.453,1.804 -0.022,2.71 -0.002,0.205 -0.002,0.41 -0.001,0.616 0.083,1.277 -0.218,2.711 1.376,3.372 1.232,-1.228 2.703,-1.741 4.45,-1.91 2.44,-0.235 4.777,-0.943 6.609,-2.755 0.56,-1.54 1.266,-3.072 0.316,-4.711" /><path
         id="path486"
         style="fill:#eef0d9;fill-opacity:1;fill-rule:nonzero;stroke:none;stroke-width:0.1"
         d="m 420.079,343.987 c 0.831,-0.3 1.67,-0.58 2.49,-0.907 0.629,-0.251 1.544,-0.664 1.854,-0.123 1.301,2.267 4.598,0.622 5.721,3.059 2.17,-0.024 4.301,0.183 6.259,-1.346 1.025,-0.8 1.498,-1.26 0.821,-2.443 -0.108,-0.188 0.182,-0.604 0.289,-0.914 -5.37,0.021 -10.756,0.412 -16.081,-0.658 -1.202,0.806 -2.579,1.54 -1.353,3.332" /><path
         id="path488"
         style="fill:#f2f2df;fill-opacity:1;fill-rule:nonzero;stroke:none;stroke-width:0.1"
         d="m 481.736,337.284 c 0.543,-0.008 1.115,0.092 1.625,-0.04 3.285,-0.845 4.326,-0.768 7.786,0.71 1.532,2.198 2.575,0.554 3.702,-0.462 0.309,-0.323 0.618,-0.649 0.959,-0.944 0.237,-0.183 0.456,-0.387 0.669,-0.599 0.459,-0.583 1.082,-1.111 0.693,-1.988 -1.482,-0.023 -3.062,0.236 -3.985,-1.388 -0.46,0.243 -0.925,0.286 -1.395,0.026 -0.915,1.031 -1.511,2.005 -3.466,1.559 -2.663,-0.607 -5.211,0.358 -6.588,3.126" /><path
         id="path490"
         style="fill:#e6e7c1;fill-opacity:1;fill-rule:nonzero;stroke:none;stroke-width:0.1"
         d="m 497.17,333.961 c -0.442,0.672 -0.885,1.345 -1.328,2.018 2.133,3.396 5.806,2.338 8.762,2.6 2.678,0.237 5.448,-0.31 8.138,0.551 0.425,0.137 0.846,-0.167 1.17,-0.492 0.225,-0.449 0.449,-0.898 0.674,-1.346 -3.769,-0.439 -7.591,-0.646 -10.961,-2.719 -0.451,-0.277 -1.125,-0.617 -1.529,-0.47 -1.289,0.468 -2.308,0.191 -3.383,-0.557 -0.478,-0.332 -1.028,0.242 -1.543,0.415" /><path
         id="path492"
         style="fill:#ededd0;fill-opacity:1;fill-rule:nonzero;stroke:none;stroke-width:0.1"
         d="m 567.528,406.327 c -0.536,1.165 -1.508,1.834 -2.642,2.316 -0.502,0.213 -1.429,0.382 -1.448,0.627 -0.235,3.058 -3.171,1.941 -4.615,3.077 1.336,0 2.686,0.124 4.005,-0.023 3.576,-0.397 5.737,-3.114 8.236,-5.248 0.54,-0.462 0.638,-1.243 0.417,-1.873 -1.181,-3.373 -0.308,-6.855 -0.627,-10.27 -1.078,1.088 -0.464,2.463 -0.631,3.706 -0.168,1.242 0.431,2.621 -0.654,3.701 -0.375,0.291 -0.514,0.695 -0.562,1.144 0.123,1.105 -0.564,1.792 -1.282,2.462 -0.068,0.126 -0.132,0.253 -0.197,0.381" /><path
         id="path494"
         style="fill:#f7f6e9;fill-opacity:1;fill-rule:nonzero;stroke:none;stroke-width:0.1"
         d="m 420.079,343.987 c -0.276,-1.406 0.762,-2.278 1.353,-3.332 -3.203,-1.686 -6.661,-1.397 -10.094,-1.304 0.98,1.726 2.788,2.734 3.65,4.669 0.8,1.792 2.537,1.631 5.091,-0.033" /><path
         id="path496"
         style="fill:#ecedcf;fill-opacity:1;fill-rule:nonzero;stroke:none;stroke-width:0.1"
         d="m 544.75,412.364 c 0.097,-1.166 -0.964,-1.754 -1.342,-2.682 -3.357,-1.636 -7.047,-0.798 -10.55,-1.375 -0.825,-0.136 -1.713,0.392 -1.761,1.526 0.089,0.183 0.177,0.365 0.267,0.549 1.606,0.439 3.162,0.832 4.853,0.112 0.899,-0.384 1.919,-0.15 2.826,0.505 1.692,1.222 3.674,1.454 5.707,1.365" /><path
         id="path498"
         style="fill:#eef1db;fill-opacity:1;fill-rule:nonzero;stroke:none;stroke-width:0.1"
         d="m 439.538,339.997 c 1.013,0.379 2.017,0.78 3.039,1.128 0.84,0.286 1.731,0.346 2.551,0.005 0.966,-0.401 0.726,-1.928 1.91,-2.189 -0.271,-0.327 -0.542,-0.653 -0.813,-0.98 -2.524,-0.287 -4.898,-0.087 -6.687,2.036" /><path
         id="path500"
         style="fill:#ecedcf;fill-opacity:1;fill-rule:nonzero;stroke:none;stroke-width:0.1"
         d="m 520.629,410.368 c -0.003,0.219 -0.006,0.438 -0.008,0.657 2.648,-0.006 5.296,0.003 7.943,-0.027 0.966,-0.012 2.013,0.247 2.799,-0.616 l -0.066,-0.079 c -4.223,-2.522 -7.574,-2.501 -10.668,0.065" /><path
         id="path502"
         style="fill:#e6eac6;fill-opacity:1;fill-rule:nonzero;stroke:none;stroke-width:0.1"
         d="m 491.79,332.599 c 0.015,0.317 -0.029,0.653 0.061,0.947 0.084,0.272 0.266,0.659 0.481,0.718 0.539,0.147 0.696,-0.318 0.776,-0.74 0.059,-0.31 0.053,-0.632 0.077,-0.951 -0.477,-0.636 -0.941,-0.607 -1.395,0.026" /><path
         id="path504"
         style="fill:#f0f0d8;fill-opacity:1;fill-rule:nonzero;stroke:none;stroke-width:0.1"
         d="m 390.571,352.069 c 0.008,-0.903 0.015,-1.806 0.022,-2.71 -0.927,0.897 -0.904,1.8 -0.022,2.71" /><path
         id="path506"
         style="fill:#ecedcf;fill-opacity:1;fill-rule:nonzero;stroke:none;stroke-width:0.1"
         d="m 546.09,413.026 c -0.294,-0.529 -0.787,-0.656 -1.34,-0.662 0.291,0.536 0.782,0.666 1.34,0.662" /><path
         id="path508"
         style="fill:#efeed6;fill-opacity:1;fill-rule:nonzero;stroke:none;stroke-width:0.1"
         d="m 386.577,410.339 c -0.298,-0.532 -0.796,-0.644 -1.348,-0.646 0.299,0.53 0.793,0.652 1.348,0.646" /><path
         id="path510"
         style="fill:#f0f0d8;fill-opacity:1;fill-rule:nonzero;stroke:none;stroke-width:0.1"
         d="m 366.468,345.354 c 0.221,0.223 0.443,0.446 0.666,0.669 -0.223,-0.223 -0.445,-0.446 -0.666,-0.669" /><path
         id="path512"
         style="fill:#e6e8c2;fill-opacity:1;fill-rule:nonzero;stroke:none;stroke-width:0.1"
         d="m 383.229,398.292 c 0.758,0.945 2.03,0.999 2.678,0.478 1.666,-1.34 3.841,-0.842 5.524,-1.887 0.904,-0.562 1.806,-0.658 2.8,-0.161 0.635,0.318 1.284,0.214 1.732,-0.441 2.349,-0.239 3.558,-2.19 4.245,-3.846 1.384,-3.335 3.579,-2.475 5.938,-1.891 0.414,0.102 0.876,0.018 1.21,0.375 0.229,0.744 0.07,2.094 1.492,1.153 0.621,-0.411 1.318,-0.683 1.862,-0.422 2.423,1.168 4.516,-0.081 6.698,-0.732 1.531,-2.405 1.533,-2.407 -0.355,-4.218 -0.314,-0.301 -0.777,-0.547 -0.489,-1.081 0.226,-0.417 0.659,-0.721 1.101,-0.512 1.528,0.72 3.422,0.017 4.613,0.57 1.624,0.753 3.067,-0.063 4.526,0.442 1.451,0.502 2.509,-0.349 3.538,-1.285 0.729,-0.665 1.355,-1.25 0.502,-2.196 -0.692,-0.767 -1.547,-1.616 -2.512,-0.589 -1.143,1.214 -2.13,1.372 -3.441,0.32 -0.377,-0.303 -1.137,-0.346 -1.566,0.104 -1.713,1.792 -3.723,1.787 -5.932,1.208 -0.841,-0.221 -1.772,-0.101 -2.662,-0.136 0.049,0.989 0.098,1.977 0.155,3.145 -1.452,0.199 -3.052,1.484 -4.036,-0.863 -2.112,0.134 -3.924,-1.044 -5.946,-1.404 -1.638,-0.294 -1.73,1.365 -3.068,1.5 -1.872,0.186 -3.798,0.024 -5.723,0.798 -1.249,0.501 -2.596,1.057 -4.156,1.789 -0.053,-1.236 0.98,-1.954 0.377,-2.973 -0.644,-1.087 0.43,-1.231 1.158,-1.436 0.68,-0.191 1.215,-0.1 0.563,0.686 -0.571,0.687 -0.252,0.975 0.341,1.196 0.479,0.179 0.861,-0.101 1.131,-0.481 0.862,-1.208 0.457,-2.516 -1.06,-2.681 -2.336,-0.256 -4.215,-0.718 -4.867,-3.437 -0.187,-0.779 -1.336,-1.405 -2.291,-1.662 -1.031,0.218 0.127,2.013 -1.396,1.805 -0.758,2.792 -1.056,5.58 -0.218,8.432 0.241,0.819 0.217,1.75 0.147,2.615 -0.067,0.82 -0.418,1.479 -1.509,1.193 -0.605,-0.159 -1.38,-1.063 -1.811,0.301 -0.289,0.918 -0.264,1.591 0.507,2.344 1.682,1.643 1.627,1.699 0.2,3.88" /><path
         id="path514"
         style="fill:#efedd6;fill-opacity:1;fill-rule:nonzero;stroke:none;stroke-width:0.1"
         d="m 403.321,346.681 c -0.393,1.543 -0.836,3.079 -0.669,4.702 -0.214,0.219 -0.31,0.481 -0.293,0.786 0.211,1.122 0.712,2.198 0.517,3.385 0.005,0.454 0.109,0.868 0.471,1.177 0.425,-0.101 0.868,-0.157 1.273,-0.311 2.268,-0.865 2.287,-0.882 1.453,-3.262 -0.144,-0.413 -0.457,-0.771 -0.138,-1.182 0.402,-0.52 0.93,-0.483 1.475,-0.22 0.496,0.238 0.977,0.534 1.498,0.69 1.298,0.387 2.783,-0.486 3.01,-1.759 0.185,-1.038 -0.469,-1.897 -0.727,-2.837 -0.23,-0.841 -0.988,-1.121 -1.818,-1.16 -0.394,0.49 -0.857,0.684 -1.206,0.025 -0.34,-0.643 -0.542,-1.36 -0.804,-2.043 -0.493,-0.939 -1.201,-1.612 -2.296,-1.116 -1.288,0.584 -1.843,1.702 -1.746,3.125" /><path
         id="path516"
         style="fill:#e3e3b5;fill-opacity:1;fill-rule:nonzero;stroke:none;stroke-width:0.1"
         d="m 402.678,352.045 c -0.004,-0.221 -0.013,-0.441 -0.026,-0.662 -2.913,0.889 -5.653,2.362 -8.889,2.097 -1.575,-0.127 -1.855,1.253 -1.817,2.578 2.115,1.438 4.645,2.093 6.652,3.829 0.971,0.84 2.597,1.063 4.061,0.885 1.223,-1.177 0.454,-2.694 0.688,-4.041 -0.002,-0.444 -0.005,-0.887 -0.007,-1.332 0.006,-1.163 -0.328,-2.258 -0.662,-3.354" /><path
         id="path518"
         style="fill:#f2f4e1;fill-opacity:1;fill-rule:nonzero;stroke:none;stroke-width:0.1"
         d="m 430.154,374.955 c -0.937,0.545 -2.066,1.093 -3.05,1.834 -0.321,0.242 0.117,0.886 0.554,0.94 1.445,0.175 2.446,-0.643 3.234,-1.722 0.359,-0.491 -0.099,-0.745 -0.738,-1.052" /><path
         id="path520"
         style="fill:#dde2b3;fill-opacity:1;fill-rule:nonzero;stroke:none;stroke-width:0.1"
         d="m 465.663,380.195 c -0.095,0.052 -0.275,0.124 -0.268,0.153 0.051,0.228 0.157,0.174 0.269,-0.151 l -10e-4,-0.002" /><path
         id="path522"
         style="fill:#dbdda3;fill-opacity:1;fill-rule:nonzero;stroke:none;stroke-width:0.1"
         d="m 569.541,403.649 c 0.01,-0.436 0.019,-0.874 0.028,-1.309 -0.009,-0.234 -0.019,-0.467 -0.029,-0.699 -2.287,-0.166 -3.623,0.717 -3.522,3.183 0.179,0.415 0.724,-0.081 0.906,0.351 -0.257,-0.04 -0.512,-0.089 -0.778,-0.052 -2.565,-0.437 -5.092,-0.542 -7.561,0.512 -1.027,0.438 -2.24,0.912 -3.111,-0.099 -0.875,-1.015 -0.686,-2.402 -0.171,-3.504 0.686,-1.47 1.664,-2.776 2.252,-4.345 0.336,-0.895 1.373,-1.561 2.783,-1.26 1.784,0.381 2.707,-0.796 1.944,-2.352 -1.328,-2.706 -0.149,-5.039 0.762,-7.344 0.601,-1.516 0.283,-3.893 2.995,-4.087 0.644,-0.046 1.036,-1.156 0.912,-1.982 -0.123,-0.822 -0.863,-0.852 -1.531,-0.996 -1.12,-0.242 -2.92,1.032 -3.259,-0.369 -0.512,-2.123 -1.96,-4.361 -1.129,-6.481 1.033,-2.633 0.137,-3.694 -2.184,-4.42 -0.744,-0.234 -1.391,-0.804 -1.697,-1.544 -0.787,-1.912 -2.434,-2.392 -4.217,-2.865 -2.646,-0.7 -5.651,-1.068 -5.932,-4.779 -0.037,-0.492 -0.552,-0.619 -0.964,-0.808 -2.505,-1.148 -3.27,-3.096 -2.556,-5.697 0.859,-3.12 0.088,-5.627 -2.756,-7.357 -2.976,2.813 -6.35,2.271 -9.586,0.807 -1.968,-0.89 -3.511,-0.707 -5.325,0.237 -2.038,1.059 -4.023,2.196 -5.881,3.555 -0.831,-1.099 0.118,-1.836 0.132,-2.67 0.008,-0.425 0.419,-1.141 0.297,-1.227 -2.405,-1.684 -0.38,-2.558 0.631,-3.584 0.961,-0.976 1.982,-2.065 1.329,-3.459 -0.599,-1.285 -2.006,-1.651 -3.401,-1.691 -0.89,-0.026 -1.801,-0.071 -2.53,0.578 -0.718,0.637 -1.564,0.794 -2.479,0.746 -1.033,0.092 -1.934,-0.297 -2.846,-0.716 -0.589,-0.271 -1.231,-0.459 -1.87,-0.588 -1.687,-0.34 -3.206,0.61 -4.868,0.692 -1.501,0.075 -2.658,-1.803 -4.333,-0.555 -0.701,0.523 -1.483,-0.126 -2.104,-0.548 -0.641,-0.436 -1.208,-0.968 -2.05,-0.944 h -0.01 c -0.353,0.4 -0.985,0.253 -1.324,0.679 -0.792,1.285 -1.624,2.464 -3.361,1.297 -2.314,0.163 -2.178,2.39 -3.089,3.708 -0.977,0.292 -1.37,-0.513 -1.923,-0.968 -0.951,-0.782 -1.322,-0.081 -1.711,0.622 0.007,0.223 -0.064,0.49 0.033,0.662 0.848,1.5 0.964,2.791 -0.881,3.644 -0.104,0.049 -0.073,0.391 -0.144,0.846 2.309,-0.633 5.031,-0.132 5.858,-3.304 0.154,-0.589 0.629,-0.863 1.29,-0.741 0.429,0.08 0.875,0.135 1.309,0.108 1.071,-0.062 1.456,-2.154 2.723,-1.178 0.815,0.626 1.16,1.855 1.739,2.801 0.346,0.569 0.715,1.125 1.109,1.662 0.561,0.768 1.317,0.977 1.95,0.218 0.81,-0.972 2.519,-1.221 2.406,-2.94 -0.03,-0.464 -0.154,-0.924 -0.558,-1.145 -0.656,-0.359 -0.653,0.336 -0.863,0.651 -0.202,0.299 -0.453,0.549 -0.793,0.327 -0.413,-0.269 -0.413,-0.754 -0.385,-1.196 0.054,-0.852 0.55,-1.464 1.23,-1.882 0.606,-0.371 1.039,0.098 1.405,0.515 0.815,0.929 0.956,2.2 1.693,3.212 1.131,1.552 2.716,1.665 3.601,-0.025 0.297,-0.569 0.219,-1.409 1.093,-1.427 1.011,-0.021 1.562,0.732 2.054,1.496 0.06,0.093 0.108,0.197 0.138,0.304 0.349,1.273 -0.301,3.229 1.9,3.293 1.376,0.04 2.355,-1.009 3.256,-2.007 0.106,0.245 0.291,0.457 0.257,0.624 -0.763,3.811 -0.771,3.821 -4.503,2.778 -0.821,-0.229 -1.611,-0.572 -2.912,-1.042 0.921,2.083 0.348,3.538 -0.747,4.828 -1.014,1.195 -2.003,2.336 -1.893,4.092 0.086,1.357 -1.538,1.294 -2.213,2.016 0.964,1.334 1.907,-0.567 2.762,0.235 -1.629,2.891 -1.629,2.891 4.199,3.145 3.705,0.758 4.761,4.364 5.264,7.974 0.17,1.22 0.149,2.923 1.625,2.892 1.803,-0.038 0.347,-1.812 0.821,-2.682 0.11,-0.201 0.257,-0.363 1.158,-0.925 -1.076,1.213 -0.973,1.958 -0.872,2.805 0.246,2.046 -0.119,2.245 -2.092,2.704 -1.397,0.324 -2.776,0.738 -2.696,2.782 0.092,2.346 -0.967,3.892 -3.556,4.259 -1.126,0.16 -1.798,1.283 -2.158,2.383 -0.308,0.943 -0.669,1.467 -1.87,1.364 -1.732,-0.149 -3.594,1.296 -5.2,0.124 -2.128,-1.553 0.377,-3.159 0.33,-4.824 -0.103,-3.663 0.485,-7.219 2.985,-10.172 0.357,-0.421 0.696,-0.977 0.649,-1.518 -0.366,-4.246 2.824,-5.657 5.752,-7.241 1.67,-0.904 3.331,-1.809 -0.14,0.075 -6.853,2.867 -7.894,3.05 -7.446,5.139 0.465,2.165 -0.478,3.91 -2.631,4.795 -1.005,0.413 -2.279,0.579 -1.5,2.204 0.073,0.154 -0.011,0.537 -0.138,0.608 -2.901,1.636 -1.827,5.149 -3.515,7.415 -1.017,1.365 -0.008,3.44 1.678,4.137 1.952,0.805 3.793,2.091 6.111,1.499 0.197,-0.051 0.511,0.357 0.771,0.552 0.178,0.272 0.405,0.492 0.679,0.663 4.148,1.377 8.51,1.361 12.783,1.92 0.241,0.394 -0.144,0.56 -0.284,0.822 -0.519,0.97 -2.418,1.472 -1.433,2.906 0.918,1.335 2.331,1.001 3.541,0.101 0.675,-0.502 1.265,-0.134 1.86,0.156 1.327,0.645 2.915,1.491 3.801,-0.217 0.951,-1.831 -0.986,-2.364 -2.467,-3.362 2.919,0.999 5.402,1.659 8.234,1.024 1.392,-0.312 4.791,-0.71 2.642,3.023 -0.527,0.914 0.46,1.286 1.273,1.47 2.83,0.643 3.525,2.935 4.215,5.247 -0.397,-1.301 -1.284,-1.793 -2.571,-1.468 -1.236,0.312 -1.427,1.32 -1.212,2.385 0.328,1.633 0.844,3.225 1.099,4.879 0.154,0.99 0.693,1.639 1.802,1.547 1.858,-0.155 3.754,0.38 5.579,-0.317 0.448,-0.732 0.893,-0.055 1.338,0.004 0.449,0.379 0.897,0.381 1.343,-0.004 3.193,0.218 6.124,-1.486 9.295,-1.313 2.911,0.158 5.718,-0.493 8.532,-0.997 1.211,-0.216 2.397,-0.349 3.612,-0.378 h 0.002 c 1.083,-0.583 1.764,-1.468 2.011,-2.678" /><path
         id="path524"
         style="fill:#e7e9c3;fill-opacity:1;fill-rule:nonzero;stroke:none;stroke-width:0.1"
         d="m 504.529,388.246 c -0.22,-10e-4 -0.441,-0.004 -0.662,-0.01 -0.968,0.063 -1.231,0.681 -1.398,1.542 -0.247,1.283 -1.064,1.37 -1.872,0.513 -1.192,-1.262 -2.214,-1.33 -3.758,-0.384 -1.156,0.708 -2.738,0.782 -4.152,0.984 -0.912,0.13 -1.699,0.397 -2.717,1.114 1.255,0.679 1.649,1.82 3.623,1.456 1.636,-0.301 3.585,1.07 5.579,0.308 0.443,-0.17 0.956,0.473 1.242,0.964 0.482,0.828 1.326,1.145 2.111,1.549 0.222,-0.004 0.443,-0.007 0.664,-0.007 0.203,-0.244 0.468,-0.423 0.678,-0.66 0.222,-0.223 0.445,-0.448 0.666,-0.672 1.061,-2.233 2.553,-4.466 -0.004,-6.697" /><path
         id="path526"
         style="fill:#e9eac7;fill-opacity:1;fill-rule:nonzero;stroke:none;stroke-width:0.1"
         d="m 481.631,354.474 c 1.193,-1.814 2,-2.979 3.582,-3.253 0.668,-0.116 1.095,-0.714 1.149,-1.452 0.034,-0.465 -0.138,-0.887 -0.498,-1.165 -0.42,-0.326 -0.886,-0.159 -1.153,0.202 -0.977,1.316 -2.017,2.43 -3.607,3.152 -0.925,0.421 0.132,1.258 0.527,2.516" /><path
         id="path528"
         style="fill:#e5eac6;fill-opacity:1;fill-rule:nonzero;stroke:none;stroke-width:0.1"
         d="m 461.894,359.177 c 0.724,-0.429 1.584,-0.818 1.422,-1.907 -0.026,-0.184 -0.527,-0.457 -0.771,-0.421 -1.004,0.145 -1.6,0.721 -1.419,1.811 0.057,0.339 0.367,0.51 0.768,0.517" /><path
         id="path530"
         style="fill:#f3f2e0;fill-opacity:1;fill-rule:nonzero;stroke:none;stroke-width:0.1"
         d="m 364.192,348.191 c 0.11,-1.232 -1.354,-3.166 -2.288,-3.274 -0.657,-0.076 -1.085,0.347 -1.215,0.909 -0.253,1.096 1.051,2.694 2.253,2.832 0.592,0.069 1.056,-0.14 1.25,-0.467" /><path
         id="path532"
         style="fill:#e8ebca;fill-opacity:1;fill-rule:nonzero;stroke:none;stroke-width:0.1"
         d="m 407.356,390.919 c -1.523,-1.899 -4.002,-1.428 -5.951,-2.321 -0.96,-0.442 -1.47,0.756 -1.278,1.722 0.202,1.011 0.866,2.115 -1.113,1.52 -0.612,-0.185 -0.512,0.365 -0.539,0.822 -0.165,2.732 -0.187,2.731 -2.62,1.2 -0.851,0.848 0.32,1.61 0.108,2.419 1.737,0.184 1.959,1.884 1.726,2.752 -0.587,2.197 1.068,2.165 2.1,2.3 1.013,0.132 2.12,0.49 3.242,-0.124 0.833,-0.455 1.786,-0.246 1.92,1.019 0.038,0.359 -0.408,0.979 0.367,0.886 0.342,-0.041 0.683,-0.525 0.924,-0.878 0.436,-0.636 -0.799,-1.109 -0.216,-1.821 0.871,-0.186 1.988,-0.398 2.528,0.286 1.414,1.79 3.13,1.149 4.835,0.944 1.666,-0.348 1.666,-0.348 4.358,-3.419 -0.161,-0.371 -0.474,-0.409 -0.799,-0.318 -0.623,0.174 -1.237,0.381 -1.855,0.574 -0.337,-1.165 -2.031,-1.772 -2.035,-2.45 -0.01,-1.615 0.076,-2.069 -1.375,-0.772 -0.667,0.595 -1.731,0.259 -2.474,0.867 -1.037,0.851 -0.811,-0.02 -0.993,-0.675 -0.21,-0.751 -1.162,-0.503 -1.179,-0.062 -0.051,1.391 -0.499,1.81 -1.784,1.215 -0.323,-0.15 -0.741,-0.175 -0.903,0.113 -1.528,2.719 -2.064,1.203 -2.352,-0.589 -0.185,-1.148 -1.522,-1.287 -1.798,-2.639 2.696,-0.005 4.154,-3.186 7.156,-2.571" /><path
         id="path534"
         style="fill:#e7ebc9;fill-opacity:1;fill-rule:nonzero;stroke:none;stroke-width:0.1"
         d="m 437.167,400.187 c 0.737,-0.161 0.942,-0.542 0.866,-1.008 -0.141,-0.875 -0.875,-0.83 -1.528,-0.88 -0.686,-0.054 -0.281,0.452 -0.283,0.652 -0.008,0.742 0.308,1.248 0.945,1.236" /><path
         id="path536"
         style="fill:#ecefd6;fill-opacity:1;fill-rule:nonzero;stroke:none;stroke-width:0.1"
         d="m 426.533,404.807 -0.233,0.088 c -0.003,0.092 0.053,0.187 0.086,0.282 l 0.233,-0.088 c 0.003,-0.093 -0.053,-0.188 -0.086,-0.282" /><path
         id="path538"
         style="fill:#e6e9c5;fill-opacity:1;fill-rule:nonzero;stroke:none;stroke-width:0.1"
         d="m 391.269,362.772 c -1.02,-1.805 -2.633,-2.58 -4.555,-3.343 -3.245,-1.288 -6.471,-2.187 -9.949,-1.997 -1.282,0.069 -2.374,-0.572 -3.59,-0.688 0.472,1.051 1.4,1.146 2.409,1.39 2.145,0.517 4.56,0.497 5.965,2.8 0.527,0.864 1.591,0.46 2.426,0.128 1.118,-0.445 2.223,-0.446 3.029,0.512 1.183,1.405 2.737,1.185 4.265,1.198" /><path
         id="path540"
         style="fill:#e8ebc9;fill-opacity:1;fill-rule:nonzero;stroke:none;stroke-width:0.1"
         d="m 405.353,374.156 c 0.022,-0.875 -0.033,-1.761 0.093,-2.622 0.106,-0.725 0.317,-1.261 -0.804,-1.134 -1.066,0.121 -1.487,-0.753 -1.85,-1.556 -0.13,-0.287 -0.063,-0.657 -0.165,-0.965 -1.175,-3.58 -1.422,-3.75 -5.325,-3.765 0.732,1.479 1.37,3.003 3.256,3.444 1.162,0.271 1.542,1.135 1.225,2.287 -0.145,0.526 -0.363,1.045 -0.423,1.581 -0.298,2.685 0.318,3.237 3.004,2.779 0.324,-0.056 0.658,-0.035 0.989,-0.049" /><path
         id="path542"
         style="fill:#e7ebc9;fill-opacity:1;fill-rule:nonzero;stroke:none;stroke-width:0.1"
         d="m 404.538,363.728 c 0.398,0.543 1.072,1.195 1.524,0.669 0.432,-0.503 -0.416,-0.789 -0.925,-0.884 -0.177,-0.034 -0.392,0.135 -0.599,0.215" /><path
         id="path544"
         style="fill:#e0e1af;fill-opacity:1;fill-rule:nonzero;stroke:none;stroke-width:0.1"
         d="m 504.529,388.246 c 0.461,2.008 1.377,4.04 -0.371,5.929 -0.07,0.075 0.241,0.504 0.375,0.767 0.368,-0.494 1.047,-0.904 1.401,-0.448 1.87,2.405 5.758,2.809 6.368,6.433 1.907,0.969 2.657,3.799 5.424,3.381 0.435,-0.066 0.901,-0.109 1.283,-0.302 0.379,-0.193 0.754,-0.527 0.603,-1.064 -0.096,-0.346 -0.363,-0.53 -0.722,-0.564 -0.444,-0.042 -0.913,-10e-4 -1.327,-0.133 -2.355,-0.75 -2.956,-2.984 -1.229,-4.672 1.061,-1.035 1.97,-2.602 3.874,-1.63 0.366,1.22 -1.266,0.771 -1.235,1.961 0.059,0.433 0.77,0.299 1.213,0.557 1.42,0.829 2.22,1.917 1.273,3.57 -1.526,2.663 -1.428,5.471 -0.83,8.337 3.546,-1.759 7.109,-0.678 10.669,-0.064 0.4,-1.788 1.898,-1.483 2.923,-1.184 3.047,0.888 6.125,0.437 9.187,0.562 0,-0.223 0,-0.445 0,-0.667 -1.563,-0.002 -3.127,-0.022 -4.689,0 -1.147,0.016 -2.034,-0.277 -1.985,-1.634 0.06,-1.617 -0.613,-3.042 -1.08,-4.523 -0.212,-0.672 -0.358,-1.341 0.444,-1.704 0.523,-0.236 1.129,-0.252 1.553,0.206 0.449,0.485 0.322,1.023 -0.117,1.471 -0.409,0.418 -0.845,0.916 -0.104,1.288 0.56,0.282 1.049,-0.093 1.243,-0.73 0.52,-1.71 1.866,-3.525 -0.647,-4.841 -0.175,-0.092 -0.344,-0.336 -0.38,-0.534 -0.42,-2.299 -1.793,-2.871 -3.92,-1.861 0.058,-0.521 0.006,-0.808 0.115,-0.896 0.65,-0.528 1.913,-0.42 1.935,-1.57 0.025,-1.287 -1.21,-1.477 -2.077,-1.867 -1.545,-0.695 -3.09,-0.928 -4.819,-0.316 -1.226,0.434 -2.52,0.976 -3.85,-0.616 -0.855,-1.026 -2.607,0.214 -4.121,0.704 0.972,0.473 1.941,0.952 2.915,1.42 0.588,0.281 0.868,0.724 0.569,1.332 -0.291,0.59 -0.889,0.58 -1.452,0.533 -0.987,-0.081 -1.496,-0.907 -2.201,-1.429 -0.828,-0.611 -1.978,-0.793 -2.268,0.214 -0.698,2.416 -1.727,0.694 -2.754,0.557 1.22,-1.655 3.545,-2.329 3.489,-4.88 -5.132,1.027 -9.882,-0.309 -14.678,-1.093" /><path
         id="path546"
         style="fill:#dde2b3;fill-opacity:1;fill-rule:nonzero;stroke:none;stroke-width:0.1"
         d="m 503.867,395.615 c -0.225,0.221 -0.452,0.441 -0.678,0.66 0.226,-0.219 0.453,-0.439 0.678,-0.66" /><path
         id="path548"
         style="fill:#d7d999;fill-opacity:1;fill-rule:nonzero;stroke:none;stroke-width:0.1"
         d="m 566.865,404.993 c -0.731,-0.522 -0.517,-1.051 -0.036,-1.615 0.732,-0.857 1.755,-1.24 2.711,-1.737 0.001,-2.478 0.427,-5.045 -2.166,-6.752 -0.774,-0.509 -0.576,-1.617 -0.476,-2.464 0.114,-0.96 0.417,-1.899 0.639,-2.846 0.467,-1.634 2.12,-2.17 3.16,-3.263 2.194,-2.303 2.548,-5.999 0.331,-8.946 0.945,-0.214 1.993,0.911 2.723,-0.134 0.671,-0.961 0.281,-2.029 -0.311,-2.815 -1.425,-1.89 -1.138,-4.234 -1.878,-6.292 -1.71,-2.855 -1.544,-6.15 -1.898,-9.253 -0.261,-2.291 -0.777,-4.556 -0.902,-6.887 -0.105,-1.952 -1.097,-3.71 -2.97,-4.914 -2.303,-1.481 -4.402,-3.158 -7.275,-3.602 -2.035,-0.316 -3.881,-1.123 -5.402,-2.913 -0.805,-0.95 -2.842,-0.854 -4.323,-1.23 -0.282,0.618 -0.726,1.073 -1.36,1.333 -2.053,1.821 -5.467,1.693 -6.704,4.683 h -0.002 c 0.774,1.008 0.958,2.307 2.149,3.21 0.584,0.441 0.547,2.578 0.003,3.462 -1.323,2.15 -0.887,3.719 0.706,5.361 0.34,0.35 0.405,1.011 0.501,1.546 0.17,0.949 0.641,0.643 1.17,0.357 1.049,-0.567 1.644,-0.361 0.998,0.849 -0.456,0.852 -0.565,1.364 0.341,1.894 1.999,1.171 3.801,2.662 6.307,2.829 1.654,0.11 3.059,0.628 3.545,2.781 0.291,1.289 2.037,1.775 3.459,1.986 0.466,0.069 0.856,0.173 1.286,0.816 -1.994,1.646 -1.409,3.746 -0.64,5.826 0.544,1.472 1.038,2.92 -0.012,4.892 2.13,-0.856 3.954,0.189 5.988,-1.624 -0.381,2.55 -0.882,3.587 -2.866,2.831 -0.671,-0.256 -1.368,-0.027 -1.736,0.631 -0.526,0.939 0.337,1.043 0.884,1.366 0.442,0.262 0.586,0.732 0.103,1.058 -2.397,1.619 -0.983,4.641 -2.473,6.647 -0.485,0.655 0.591,1.316 1.07,1.898 0.599,0.728 0.726,1.457 -0.193,1.934 -0.961,0.498 -1.005,-0.454 -1.309,-0.988 -0.09,-0.156 -0.348,-0.216 -0.212,-0.137 -1.093,0.893 -2.721,1.557 -3.012,2.594 -0.722,2.586 -3.497,4.345 -2.732,7.567 0.358,1.508 0.781,2.194 2.299,2.072 0.332,-0.026 0.738,0.109 0.992,-0.036 2.826,-1.628 6.003,-1.13 9.026,-1.551 0.182,-0.025 0.332,-0.277 0.497,-0.424" /><path
         id="path550"
         style="fill:#dbdda3;fill-opacity:1;fill-rule:nonzero;stroke:none;stroke-width:0.1"
         d="m 571.562,368.129 c 0.031,1.546 -0.132,3.128 0.149,4.627 0.268,1.43 1.885,2.415 1.728,4.197 -1.13,0.151 -2.012,-0.259 -2.925,-0.58 -0.51,-0.18 -1.247,-0.296 -1.334,0.439 -0.084,0.707 0.087,1.837 1.131,1.454 1.317,-0.486 1.262,0.15 1.247,1.013 -0.004,0.221 -0.046,0.454 0.005,0.662 0.906,3.63 -0.263,6.246 -3.703,7.853 -0.732,0.342 -1.281,0.998 -0.323,1.785 2.318,-0.689 3.374,-3.103 5.518,-4.06 0.281,-0.125 0.426,-0.764 0.467,-1.182 0.138,-1.409 -0.066,-2.801 0.867,-4.141 0.658,-0.944 -0.765,-2.398 0.406,-3.555 0.24,-0.239 0.042,-1.096 -0.162,-1.579 -0.986,-2.328 -2.041,-4.625 -3.071,-6.933" /><path
         id="path552"
         style="fill:#dadda3;fill-opacity:1;fill-rule:nonzero;stroke:none;stroke-width:0.1"
         d="m 540.728,345.346 c 1.147,-0.4 1.517,-1.931 3.24,-1.712 1.869,0.238 2.244,-2.022 3.464,-2.972 -1.851,-0.039 -3.67,-0.032 -5.518,-0.53 -2.154,-0.581 -2.909,0.395 -2.195,2.461 0.319,0.923 0.982,1.719 1.009,2.753" /><path
         id="path554"
         style="fill:#e0e1af;fill-opacity:1;fill-rule:nonzero;stroke:none;stroke-width:0.1"
         d="m 546.089,409.015 c -0.447,0.001 -0.895,0.002 -1.343,0.003 0.449,0.679 0.898,0.681 1.343,-0.003" /><path
         id="path556"
         style="fill:#e6e7c1;fill-opacity:1;fill-rule:nonzero;stroke:none;stroke-width:0.1"
         d="m 494.508,336.658 c 0.542,-0.029 1.034,-0.157 1.324,-0.679 -0.56,-0.003 -1.06,0.11 -1.324,0.679" /><path
         id="path558"
         style="fill:#e5e6bd;fill-opacity:1;fill-rule:nonzero;stroke:none;stroke-width:0.1"
         d="m 569.541,403.649 c -0.67,0.893 -1.34,1.786 -2.011,2.678 1.492,-0.275 2.787,-0.699 2.011,-2.678" /><path
         id="path560"
         style="fill:#e7ebc9;fill-opacity:1;fill-rule:nonzero;stroke:none;stroke-width:0.1"
         d="m 402.678,352.045 c -0.092,1.18 0.019,2.319 0.662,3.354 1.089,-1.377 -0.126,-2.298 -0.662,-3.354" /><path
         id="path562"
         style="fill:#d6d999;fill-opacity:1;fill-rule:nonzero;stroke:none;stroke-width:0.1"
         d="m 510.717,381.941 c 0.443,0.419 0.274,0.719 0.167,1.02 -0.168,0.465 -0.167,0.923 0.433,0.967 0.268,0.019 0.805,-0.286 0.8,-0.43 -0.061,-1.769 1.078,-2.646 2.341,-3.577 1.587,-1.171 -0.395,-2.397 -0.07,-3.957 1.206,0.799 2.649,-2.659 3.712,0.641 0.803,-0.87 0.353,-2.082 1.191,-2.82 0.728,-0.641 0.513,-1.353 -0.066,-2.052 -0.527,-0.634 -0.715,-1.159 0.507,-1.166 0.975,-0.005 0.85,-0.832 0.83,-1.489 -0.015,-0.471 -0.219,-0.91 -0.645,-1.093 -0.818,-0.351 -1.098,0.523 -1.644,0.805 -1.685,0.87 0.054,2.476 -0.78,3.843 -1.826,-2.47 0.14,-5.624 -2.006,-7.662 0.284,-2.512 1.612,-4.887 0.962,-7.615 -1.962,1.433 -3.937,2.798 -6.208,3.616 -2.2,0.792 -3.582,2.588 -5.139,4.145 -0.52,0.519 -1.104,1.479 -0.959,2.066 0.539,2.203 -0.632,3.737 -2.015,4.887 -0.972,0.81 0.003,2.853 -2.005,2.805 -0.097,-0.002 0.271,0.708 0.56,1.033 0.217,0.244 1.066,0.532 0.257,0.878 -1.052,0.449 -0.847,1.02 -0.617,1.847 0.508,1.822 0.199,3.563 -1.007,5.041 -1,1.225 -0.587,1.945 0.639,2.613 1.252,0.683 2.566,0.759 3.894,0.494 1.187,-0.236 2.28,-1.517 3.493,0.244 0.376,0.547 1.169,-0.437 1.143,-1.094 -0.069,-1.749 0.657,-2.994 2.232,-3.99" /><path
         id="path564"
         style="fill:#d7d999;fill-opacity:1;fill-rule:nonzero;stroke:none;stroke-width:0.1"
         d="m 566.865,404.993 0.279,-0.153 -0.125,-0.125 z" /><path
         id="path566"
         style="fill:#e0e2b2;fill-opacity:1;fill-rule:nonzero;stroke:none;stroke-width:0.1"
         d="m 411.833,397.563 c -1.598,0.326 -3.171,0.899 -4.8,0.188 -0.306,-0.134 -0.62,0.176 -0.657,0.525 -0.019,0.175 0.11,0.423 0.252,0.548 1.056,0.929 5.601,1.201 6.643,0.386 0.624,-0.489 0.337,-0.991 -0.179,-1.302 -0.356,-0.214 -0.828,-0.235 -1.259,-0.345" /></g></g></svg>