<?xml version="1.0" encoding="UTF-8" standalone="no"?>
<svg
   xmlns:dc="http://purl.org/dc/elements/1.1/"
   xmlns:cc="http://creativecommons.org/ns#"
   xmlns:rdf="http://www.w3.org/1999/02/22-rdf-syntax-ns#"
   xmlns:svg="http://www.w3.org/2000/svg"
   xmlns="http://www.w3.org/2000/svg"
   id="svg8840"
   version="1.1"
   viewBox="0 0 16.233999 12.198"
   height="12.198mm"
   width="16.233999mm">
  <defs
     id="defs8834" />
  <metadata
     id="metadata8837">
    <rdf:RDF>
      <cc:Work
         rdf:about="">
        <dc:format>image/svg+xml</dc:format>
        <dc:type
           rdf:resource="http://purl.org/dc/dcmitype/StillImage" />
        <dc:title></dc:title>
      </cc:Work>
    </rdf:RDF>
  </metadata>
  <g
     transform="translate(0,-284.802)"
     id="layer1">
    <path
       id="path8822"
       d="m 9.4315304,284.80227 c -0.025411,-0.002 -0.05073,0.007 -0.07286,0.0274 -0.021119,0.0194 -0.02834,0.0747 -0.01705,0.10439 0.0058,0.016 0.01428,0.0285 0.024799,0.0377 v 10e-4 c 0.03146,0.0283 0.07852,0.0292 0.1157549,0.009 0.0533,-0.0278 0.06566,-0.0854 0.02325,-0.14107 -0.02297,-0.0234 -0.04848,-0.0363 -0.0739,-0.0382 z m -1.2376488,0.26561 c -0.08664,-0.004 -0.1865212,0.0328 -0.300758,0.11887 -0.07987,0.0673 -0.1854652,0.12298 -0.2589001,0.19637 -0.07344,0.0734 -0.114654,0.16471 -0.06563,0.30437 0.04516,0.12855 0.1189622,0.22795 0.217043,0.29559 0.09833,0.0674 0.2207871,0.10331 0.362768,0.10439 0.2360372,-0.0777 0.3718291,-0.14807 0.427881,-0.25115 0.05605,-0.10308 0.03239,-0.23889 -0.05168,-0.44803 -0.06254,-0.15562 -0.14445,-0.26325 -0.248566,-0.30335 -0.02603,-0.01 -0.05328,-0.0158 -0.08216,-0.0171 z m 2.1202824,1.43714 c -0.04642,1.7e-4 -0.0932,0.006 -0.140044,0.0171 -0.09369,0.0229 -0.1866524,0.0688 -0.2718164,0.13901 -0.07789,0.0944 -0.1136201,0.18971 -0.1136891,0.28577 -6.91e-5,0.0961 0.03544,0.19297 0.1012851,0.29042 0.1462854,0.0595 0.1889124,0.20882 0.2769864,0.31885 0.037,0.0377 0.07391,0.0705 0.111104,0.094 0.05543,0.0358 0.110834,0.0528 0.166915,0.0413 0.05608,-0.0114 0.112689,-0.0508 0.170016,-0.12764 0.102714,-0.0259 0.1695,-0.0655 0.211873,-0.11369 0.04237,-0.0482 0.06038,-0.10505 0.06563,-0.16693 0.01051,-0.12375 -0.03032,-0.26664 -0.02894,-0.39377 -0.03971,-0.0999 -0.09802,-0.18131 -0.168981,-0.2434 -0.07096,-0.0621 -0.154443,-0.10443 -0.243399,-0.12557 -0.04447,-0.0106 -0.09052,-0.0157 -0.13694,-0.0155 z m 1.489832,0.74931 c -0.24797,0.0561 -0.384551,0.11157 -0.426331,0.20362 -0.04178,0.0921 0.01089,0.22047 0.14211,0.42323 0.04422,0.0684 0.101677,0.12849 0.152961,0.19223 -0.135266,0.13987 -0.16297,0.23874 -0.120923,0.31161 0.04205,0.0729 0.153612,0.11966 0.297141,0.15401 -0.03983,0.10999 0.0125,0.22202 0.04651,0.33383 0.017,0.0559 0.02967,0.1121 0.02377,0.16743 -0.0059,0.0553 -0.03045,0.10973 -0.08681,0.16382 l -0.02791,-0.0238 -0.02791,-0.0233 c -0.07829,0.0419 -0.159236,0.0478 -0.243395,0.0196 -0.117989,0.0568 -0.246592,-0.0174 -0.365353,0.0305 -0.07566,0.0907 -0.151225,0.1812 -0.226859,0.27181 -0.05781,0.0209 -0.115258,0.0418 -0.173117,0.0631 -0.09143,0.002 -0.149812,0.0451 -0.198437,0.10026 -0.04863,0.0551 -0.08739,0.12269 -0.13901,0.17415 0.02417,0.06 0.0487,0.11986 0.07286,0.17984 -0.053,0.0921 -0.12709,0.15089 -0.210323,0.19481 -0.08323,0.0439 -0.175678,0.0729 -0.266649,0.10439 -0.097981,0.0733 -0.2223371,0.0988 -0.3395153,0.13694 -0.1171789,0.0381 -0.227521,0.0887 -0.298173,0.21188 -0.05709,0.0473 -0.09692,0.1164 -0.1467609,0.17312 -0.04984,0.0567 -0.10966,0.10146 -0.2051561,0.0992 -0.109566,-0.0833 -0.207822,-0.17492 -0.2883529,-0.27958 -0.08053,-0.10466 -0.1433039,-0.22259 -0.1803511,-0.35915 l -0.00151,0.003 c -0.017751,-0.10374 -0.07547,-0.17083 -0.1446958,-0.22738 -0.06922,-0.0565 -0.1501482,-0.10274 -0.2139392,-0.16433 -0.02653,-0.14865 -0.0805,-0.22068 -0.1539949,-0.23874 -0.0735,-0.0181 -0.1663491,0.0179 -0.270786,0.0858 -0.113207,0.15228 -0.267771,0.20346 -0.429432,0.23668 -0.1616569,0.0332 -0.330813,0.0484 -0.4728389,0.12971 -0.05741,-0.014 -0.1141551,-0.0274 -0.1715641,-0.0413 -0.03626,-0.19435 -0.09906,-0.37738 -0.2340951,-0.52815 0.024921,-0.15368 0.100629,-0.27818 0.2191091,-0.37775 0.0014,-0.0417 0.0034,-0.083 0.0046,-0.12454 -0.011329,-0.004 -0.023069,-0.004 -0.0341,-0.007 2.408e-4,-3.1e-4 8.202e-4,-7.6e-4 0.00101,-0.001 0,0 0.03314,0.007 0.03307,0.007 0.1032481,-0.0904 0.206198,-0.18138 0.309544,-0.27181 -0.06618,-0.0696 -0.1275368,-0.0918 -0.1855211,-0.0811 -0.05798,0.0107 -0.112395,0.0543 -0.164846,0.11782 -0.07377,0.0841 -0.1472477,0.16809 -0.221175,0.25218 -0.05942,0.0609 -0.1136338,0.0726 -0.1653648,0.0589 -0.05173,-0.0137 -0.1008221,-0.0526 -0.1498629,-0.092 -0.04911,-0.0368 -0.09076,-0.0488 -0.1147202,-0.0367 -0.023961,0.0121 -0.03023,0.0484 -0.0093,0.10749 0.05791,0.16319 0.0927,0.34586 0.2439138,0.46251 0.00101,0.15641 0.04267,0.29928 0.0987,0.43719 0.05603,0.13791 0.126251,0.27122 0.1849988,0.40824 -0.005,0.0582 -0.010459,0.1161 -0.015499,0.17415 0.103804,0.1361 0.207809,0.27216 0.3116109,0.40826 0.03489,0.0992 0.06954,0.19842 0.1043861,0.29765 -0.02214,0.15698 -0.1027221,0.28107 -0.19172,0.4005 -0.089,0.11942 -0.186317,0.23387 -0.241848,0.37208 -0.0491,0.10917 -0.09833,0.21799 -0.1472771,0.32711 -0.05042,0.09 -0.118142,0.13161 -0.194818,0.15192 -0.07668,0.0203 -0.162246,0.0196 -0.249082,0.0243 -0.06583,0.004 -0.1516409,-0.0139 -0.219625,0.001 -0.06799,0.0149 -0.118041,0.0618 -0.11317,0.19482 0.02972,0.10081 0.05964,0.20276 0.0894,0.30386 -0.372777,0.0582 -0.7333782,0.15664 -1.0738382,0.32246 -0.135901,0.0451 -0.15081,0.0948 -0.122473,0.13592 0.02834,0.0411 0.100076,0.0735 0.136427,0.0842 0.117941,0.0348 0.174754,0.0959 0.20257,0.17105 0.02782,0.0751 0.02641,0.16434 0.02687,0.25528 -0.0069,0.0859 0.02914,0.16776 0.05478,0.25064 0.025641,0.0829 0.04099,0.16656 -0.0078,0.25631 -0.025379,-0.007 -0.04441,0.002 -0.05736,0.0258 -0.169725,-0.0182 -0.339355,-0.0374 -0.509011,-0.0558 -0.107305,-0.0484 -0.214649,-0.0973 -0.321945,-0.14573 -0.01897,0.0176 -0.03621,0.0365 -0.05219,0.0568 -0.02263,-0.0196 -0.04503,-0.039 -0.0677,-0.0584 -0.06982,-0.0351 -0.125076,-0.11529 -0.190169,-0.16484 -0.06509,-0.0496 -0.1403961,-0.0684 -0.2506291,0.0186 -0.04072,0.005 -0.08131,0.007 -0.121957,0.0103 -0.07697,0.12529 -0.09773,0.28158 -0.142111,0.42478 -0.04438,0.14321 -0.112434,0.27343 -0.28422,0.34624 -0.06585,0.0799 -0.07122,0.15883 0.0072,0.23409 -0.04118,0.0481 -0.05963,0.094 -0.05581,0.1385 0.0038,0.0445 0.03004,0.0873 0.07803,0.12816 -0.09082,0.10942 -0.18202,0.21916 -0.272852,0.32866 -0.144685,0.0234 -0.289943,0.0465 -0.434599,0.0698 -0.103702,-0.10978 -0.218562,-0.191 -0.344679,-0.24495 -0.126119,-0.054 -0.263392,-0.0807 -0.410829,-0.0822 -0.01786,-0.008 -0.03727,-0.0123 -0.06098,-0.004 0.0017,0.001 0.003,0.002 0.0047,0.003 l -0.526066,0.11782 c -0.0047,-0.002 -0.01148,-0.001 -0.01602,-0.003 -0.0234,-0.0142 -0.05077,-0.0206 -0.07596,-0.0305 -0.129866,-0.003 -0.26225,-0.0335 -0.392226,-0.0382 -0.129974,-0.005 -0.257271,0.0163 -0.376722,0.11627 0.0581,0.0634 0.116644,0.12625 0.177768,0.18191 l 0.001,-5.3e-4 c 0.09177,0.0833 0.189306,0.15143 0.300754,0.18397 0.111453,0.0325 0.236514,0.0296 0.38344,-0.0279 0.02468,0.0318 0.04964,0.0638 0.07441,0.0956 0.184253,-0.0619 0.36871,-0.12328 0.552939,-0.185 0.06366,0.008 0.127151,0.0197 0.190685,0.0279 0.139954,0.0973 0.28964,0.14259 0.443902,0.16485 0.154258,0.0222 0.313296,0.0213 0.471287,0.0243 0.0084,0.0102 0.01253,0.0189 0.02274,0.0274 0.180856,0.0464 0.365498,0.0776 0.53847,0.13901 0.172971,0.0614 0.334531,0.1525 0.469738,0.31834 0.05251,0.0644 0.1367341,0.0957 0.2315111,0.10232 0.09478,0.007 0.199998,-0.0112 0.293004,-0.0455 0.0011,-0.002 4.23e-4,-0.003 0.0016,-0.006 0.03029,0.002 0.0611,0.004 0.09147,0.006 0.105762,0.0624 0.163534,0.17542 0.231511,0.27802 H 16.233635 v -2.0831 -1.80506 -3.42463 c -0.02146,7.2e-4 -0.044,0.006 -0.0646,0.006 -0.096,-0.003 -0.180393,-0.0232 -0.22996,-0.0754 -0.09693,-0.10238 -0.160401,-0.15401 -0.207222,-0.14625 -0.04682,0.008 -0.07699,0.075 -0.10542,0.21085 -0.02097,0.0997 -0.06832,0.16959 -0.130741,0.20361 -0.06243,0.034 -0.139923,0.0322 -0.220658,-0.0109 -0.104902,-0.0559 -0.125322,-0.11167 -0.105936,-0.17104 0.01938,-0.0594 0.07888,-0.12236 0.133842,-0.19328 0.138303,-0.17831 0.202779,-0.45345 0.200504,-0.71986 -0.0023,-0.2664 -0.07115,-0.52424 -0.199988,-0.66663 -0.162499,-0.17961 -0.45216,-0.31448 -0.751377,-0.37982 -0.149603,-0.0327 -0.301564,-0.0479 -0.441314,-0.0424 -0.139753,0.005 -0.267402,0.0316 -0.367938,0.0816 -0.06995,0.0833 -0.140298,0.16624 -0.210322,0.2496 -0.06999,0.0644 -0.12599,0.15131 -0.196372,0.21497 -0.07038,0.0637 -0.155061,0.10422 -0.281119,0.0765 -0.08388,-0.0791 -0.167349,-0.15862 -0.251148,-0.23771 -2.91e-4,-0.10076 -0.0011,-0.20159 -0.0016,-0.30231 0.05079,-0.0927 0.08548,-0.23238 0.001,-0.26665 -0.07172,-0.0293 -0.193609,0.066 -0.293521,0.10594 -0.06287,0.0661 -0.110839,0.15508 -0.22221,0.14883 -0.01535,-0.11858 -0.05039,-0.2224 -0.110588,-0.30799 -0.0602,-0.0856 -0.145407,-0.15294 -0.259932,-0.19897 -0.03777,-0.004 -0.07546,-0.008 -0.11317,-0.0114 z m -2.1693764,0.85164 c -0.06702,0.0119 -0.1242412,0.0708 -0.1695001,0.18397 -0.0059,0.0462 -0.011501,0.0922 -0.017571,0.13849 0.07778,0.0354 0.09182,0.18002 0.164846,0.2093 0.024511,0.01 0.05547,0.005 0.09715,-0.0176 0.05802,-0.0336 0.124822,-0.0777 0.1669148,-0.13747 0.04209,-0.0597 0.05943,-0.13518 0.0186,-0.23203 l -0.024289,-0.0176 -0.0067,-0.0289 c -0.0856,-0.0749 -0.1624229,-0.1101 -0.229444,-0.0982 z m -1.399916,0.49145 c -0.05165,-0.004 -0.1090322,0.0411 -0.1710481,0.12816 0.06388,0.01 0.08731,0.0605 0.1028359,0.11679 0.01552,0.0563 0.02354,0.11808 0.05684,0.15193 v 5.1e-4 c 0.02249,0.0222 0.05535,0.0325 0.110072,0.0191 0.06217,-0.015 0.08006,-0.0546 0.07855,-0.10232 -0.00151,-0.0478 -0.02277,-0.10363 -0.03979,-0.15038 -0.03983,-0.10813 -0.08581,-0.16016 -0.137459,-0.16382 z m -2.7962122,0.29197 c -0.05192,0.0682 -0.07399,0.13332 -0.0279,0.18242 v 5.3e-4 c 0.015589,0.0163 0.03845,0.031 0.0708,0.0434 0.024929,0.01 0.09761,-0.0256 0.09922,-0.0444 0.008,-0.0975 -0.07805,-0.1332 -0.1421112,-0.18191 z m 3.979087,0.13333 c -0.09037,-0.006 -0.146944,0.0283 -0.1850019,0.0827 -0.03806,0.0544 -0.05748,0.12848 -0.07286,0.20154 0.04759,0.11154 0.09222,0.17448 0.134874,0.20361 0.06394,0.0437 0.1234389,0.0116 0.1813848,-0.0444 0.05794,-0.056 0.1144931,-0.13622 0.172598,-0.18913 0.0046,-0.0813 -0.020201,-0.1424 -0.06253,-0.18449 -0.04233,-0.0421 -0.1026239,-0.065 -0.1684629,-0.0698 z m -3.6090828,0.20567 c -0.024529,-0.005 -0.05166,0.003 -0.07855,0.0295 -0.03685,0.0626 0.00111,0.10762 0.04186,0.14521 v 5.1e-4 c 0.03744,0.0348 0.09181,0.0921 0.1317728,0.0217 0.019201,-0.0338 -0.0066,-0.10751 -0.03307,-0.14986 -0.015571,-0.0251 -0.03748,-0.0423 -0.06201,-0.047 z m -1.0733195,0.16795 c -0.0679,-0.007 -0.140737,0.009 -0.219626,0.0553 0.07272,0.0664 0.133565,0.15815 0.208774,0.21964 0.07612,0.063 0.1678824,0.0934 0.3023063,0.0351 0.05248,-0.0228 0.07091,-0.0935 0.017571,-0.1416 -0.07679,-0.069 -0.1562709,-0.12841 -0.2428783,-0.15503 -0.02165,-0.007 -0.04351,-0.0113 -0.06615,-0.0134 z m -0.219626,0.0553 -0.0031,-0.003 5.29e-4,0.006 c 8.74e-4,-5.3e-4 0.0013,-5.5e-4 0.0021,-10e-4 z m -0.626319,0.72814 c -0.117967,0.009 -0.2271711,0.0255 -0.2924861,0.0791 -0.06532,0.0535 -0.08638,0.14434 -0.02687,0.30231 0.09134,0.16875 0.1696141,0.27606 0.2490831,0.3235 0.06621,0.0395 0.132994,0.037 0.208255,-0.006 0.07526,-0.0432 0.158616,-0.12691 0.258383,-0.25116 0.04665,-0.0341 0.04414,-0.0719 0.0088,-0.11214 -0.03005,-0.10072 -0.07511,-0.18326 -0.140561,-0.24132 -0.06545,-0.0581 -0.151381,-0.0916 -0.263032,-0.0941 z m 1.6231584,0.063 c -0.02178,-5.3e-4 -0.04083,0.003 -0.04548,0.0103 -0.03247,0.0557 -0.018989,0.0881 0.0088,0.1142 v 0.001 c 0.02683,0.0259 0.06799,0.0449 0.0925,0.0718 0.03525,-0.0293 0.06525,-0.0599 0.07234,-0.0909 0.0071,-0.031 -0.0091,-0.0626 -0.06718,-0.0941 -0.0147,-0.008 -0.0392,-0.0119 -0.06098,-0.0124 z m -1.0200934,1.14516 c -0.107286,0.0295 -0.153617,0.0788 -0.163813,0.13953 -0.0102,0.0607 0.01583,0.13313 0.05219,0.20877 0.07323,-0.002 0.149136,-0.002 0.203605,-0.0279 0.05447,-0.0263 0.08754,-0.0796 0.07493,-0.1912 -0.05601,-0.0427 -0.110926,-0.0863 -0.166915,-0.12919 z m -1.3048291,0.73485 c -0.0817,9.8e-4 -0.16232,0.026 -0.242364,0.0796 -0.0528,0.0283 -0.105328,0.0565 -0.158128,0.0847 0.05243,0.0964 0.1124,0.173 0.1788,0.22996 0.09985,0.0854 0.214368,0.12626 0.34158,0.12196 0.127216,-0.004 0.266952,-0.0536 0.4165121,-0.14883 0.01663,-0.0175 0.0369,-0.0269 0.06098,-0.0289 0.07634,-0.13707 0.06546,-0.20612 0.01292,-0.24236 -0.05254,-0.0362 -0.1466191,-0.0398 -0.2377121,-0.046 -0.04162,0.005 -0.08393,0.0101 -0.125574,0.015 -0.08296,-0.0426 -0.165312,-0.0661 -0.247012,-0.0651 z m 2.0835934,0.016 c -0.011279,0.0754 0.0079,0.12627 0.04444,0.15916 0.03674,0.0327 0.09026,0.048 0.1498632,0.0517 0.0433,0.002 0.08611,-0.005 0.1111038,-0.0289 0.02499,-0.0235 0.03211,-0.0624 0.0052,-0.12299 z m -1.2774403,0.8661 c -0.09987,0.0377 -0.201853,0.0734 -0.254767,0.17829 0.01985,0.059 0.04564,0.10289 0.07493,0.13384 0.04387,0.0464 0.09613,0.0629 0.150378,0.0548 0.05424,-0.008 0.110612,-0.041 0.16278,-0.0935 0.07335,-0.0738 0.06428,-0.12501 0.0248,-0.16639 -0.03948,-0.0414 -0.109325,-0.0732 -0.158128,-0.10698 z m 0.01757,0.62012 c -0.02741,-10e-4 -0.05128,0.004 -0.06976,0.015 -0.03696,0.0226 -0.05338,0.0722 -0.03927,0.15916 0.01969,-4e-4 0.03219,0.009 0.03669,0.0279 0.04981,-0.0134 0.107839,0.016 0.161748,0.0289 0.05391,0.0129 0.103579,0.009 0.135908,-0.0693 0.02684,-0.0653 -0.06585,-0.12158 -0.133323,-0.14314 -0.03364,-0.0108 -0.06458,-0.0176 -0.09199,-0.0186 z m -3.0509781,0.62633 c 0.05184,0.12799 0.112808,0.21514 0.185002,0.2744 l 5.16e-4,-5e-4 c 0.07204,0.0594 0.155429,0.0917 0.251148,0.11007 -0.03045,-0.0882 -0.07442,-0.16225 -0.143143,-0.22532 -0.06872,-0.0631 -0.162499,-0.11523 -0.293523,-0.15865 z m 1.921331,2.38954 c -0.05991,0.002 -0.08221,0.0302 -0.09147,0.0667 -0.0093,0.0365 -0.0057,0.0813 -0.01447,0.11731 0.05376,0.0294 0.105608,0.087 0.159681,0.11162 0.05407,0.0246 0.110326,0.0163 0.17363,-0.0868 -0.04197,-0.0308 -0.0647,-0.0841 -0.09405,-0.12919 -0.02935,-0.045 -0.06518,-0.082 -0.133326,-0.0796 z"
       style="opacity:1;fill:#a8b47f;fill-opacity:1;stroke:none;stroke-width:0.35483485;stroke-opacity:1" />
  </g>
</svg>
