<?xml version="1.0" encoding="UTF-8" standalone="no"?>
<svg
   xmlns:dc="http://purl.org/dc/elements/1.1/"
   xmlns:cc="http://creativecommons.org/ns#"
   xmlns:rdf="http://www.w3.org/1999/02/22-rdf-syntax-ns#"
   xmlns:svg="http://www.w3.org/2000/svg"
   xmlns="http://www.w3.org/2000/svg"
   id="svg8840"
   version="1.1"
   viewBox="0 0 8.2290001 8.0740004"
   height="8.0740004mm"
   width="8.2290001mm">
  <defs
     id="defs8834" />
  <metadata
     id="metadata8837">
    <rdf:RDF>
      <cc:Work
         rdf:about="">
        <dc:format>image/svg+xml</dc:format>
        <dc:type
           rdf:resource="http://purl.org/dc/dcmitype/StillImage" />
        <dc:title></dc:title>
      </cc:Work>
    </rdf:RDF>
  </metadata>
  <g
     transform="translate(0,-288.926)"
     id="layer1">
    <path
       id="path8774"
       d="m 0,288.92644 v 4.11395 c 0.115351,-0.0884 0.272817,-0.11416 0.360185,-0.24392 0.03405,-0.005 0.06826,-0.008 0.10232,-0.0124 0.0099,0.11481 0.07081,0.19283 0.14211102,0.26355 0.0713,0.0707 0.153212,0.13393 0.205155,0.21859 0.0062,0.0371 0.01259,0.0744 0.01809,0.11162 -0.0077,0.0161 -0.01292,0.0328 -0.01499,0.0507 -0.01608,0.0242 -0.03206,0.0482 -0.04806,0.0723 -0.04081,0.14425 -0.07941,0.28898 -0.122473,0.43253 -0.02229,0.0742 -0.03338,0.14478 -0.02067,0.20878 0.01271,0.064 0.04893,0.12152 0.121957,0.1695 v 5e-4 c -0.04754,0.19752 -0.17998902,0.36969 -0.17001702,0.58396 -0.03064,0.0623 -0.06141,0.1248 -0.09198,0.18707 -0.0142,0.0407 -0.02815,0.0809 -0.04238,0.12144 -0.04485,0.0284 -0.100764,0.0521 -0.129191,0.0868 -0.02843,0.0347 -0.02938,0.0802 0.03669,0.15141 0.01102,0.0512 -4.2e-5,0.14118 0.06615,0.13178 0.04797,-0.007 0.05847,-0.0325 0.05633,-0.0636 -0.0021,-0.0311 -0.01653,-0.0678 -0.01757,-0.0971 0.05107,-0.0667 0.101385,-0.1333 0.110069,-0.22118 0.05747,-0.0537 0.13657502,-0.0946 0.11885602,-0.1943 h -5.16e-4 c 0.02653,-0.0383 0.05304,-0.0769 0.07958,-0.11524 0.0941,-0.0148 0.149056,0.0684 0.22789399,0.0915 0.04035,0.0721 0.10161599,0.10423 0.18396699,0.0956 0.03833,0.0986 -0.0577,0.19807 0.03101,0.36432 0.07238,-0.11548 0.07796,-0.2113 0.05633,-0.29715 -0.02164,-0.0858 -0.07029,-0.16209 -0.105421,-0.23874 -0.01877,-0.0115 -0.03718,-0.0232 -0.05581,-0.0351 0.0173,-0.0264 0.03443,-0.0521 0.05168,-0.0785 0.07078,-0.0464 0.139822,-0.0961 0.212908,-0.13849 0.06642,-0.0384 0.09228,-0.0279 0.10387,0 0.01159,0.0279 0.0091,0.0733 0.01809,0.10387 0.0018,0.0184 0.0021,0.0366 0,0.0548 -0.06027,0.13034 -0.05518,0.25362 0.0248,0.36793 0.0043,0.0113 0.01036,0.0228 0.02067,0.0326 0.07411,5.1e-4 0.123158,-0.0269 0.159681,-0.0682 0.03652,-0.0413 0.06092,-0.0963 0.0863,-0.15089 0.01205,-0.0257 0.01045,-0.0656 0.01964,-0.0951 0.0092,-0.0295 0.029,-0.0488 0.08372,-0.0336 0.04874,0.0134 0.0972,0.0628 0.125056,0.10852 0.04222,0.069 0.03159,0.14153 -0.01964,0.21239 -0.02337,0.0323 -0.06984,0.0345 -0.109553,0.0455 -0.03971,0.011 -0.07282,0.0309 -0.06925,0.0992 0.10318,10e-4 0.200824,0.0394 0.299207,0.0677 0.09838,0.0283 0.197702,0.0467 0.304892,0.0103 0.08108,-0.005 0.115372,-0.0399 0.132292,-0.0868 0.01692,-0.047 0.01631,-0.10566 0.02894,-0.15555 0.03393,-0.01 0.06844,-0.0168 0.102319,-0.0258 0.02248,-0.0164 0.04482,-0.0331 0.06718,-0.0496 0.106082,-0.0126 0.212264,-0.0255 0.318325,-0.0387 0.03075,0.0658 0.07344,0.12864 0.08992,0.19792 0.01052,0.0439 0.02255,0.091 0.04444,0.12299 0.02189,0.0319 0.05335,0.0487 0.102839,0.032 0.07733,-0.0261 0.0145,-0.13113 0.01602,-0.20103 6.61e-4,-0.0672 0.01932,-0.0969 0.04858,-0.10438 0.02926,-0.008 0.06904,0.007 0.11162,0.0274 0.03507,0.0427 0.06532,0.0475 0.09405,0.0367 0.02874,-0.0108 0.05592,-0.0371 0.08372,-0.0568 0.03763,-0.005 0.07561,-0.007 0.11317,-0.0119 0.12573,-0.15559 0.337843,-0.16841 0.483173,-0.29146 -0.0014,-0.0163 5.82e-4,-0.0318 0.0067,-0.047 0.03083,-0.0293 0.04648,-0.0821 0.07286,-0.11834 0.02638,-0.0363 0.06359,-0.0563 0.137459,-0.0202 0.160451,0.0444 0.187293,0.008 0.178285,-0.0506 -0.009,-0.0585 -0.05394,-0.13852 -0.03721,-0.18138 -0.09756,-0.0459 -0.158279,-0.10934 -0.191204,-0.18604 -0.03292,-0.0767 -0.03798,-0.16646 -0.0248,-0.2651 0.06759,-0.0413 0.135998,-0.0807 0.219109,-0.0786 0.07247,0.064 0.154935,0.0489 0.237709,0.0295 -0.0013,-0.0181 -0.0021,-0.0363 -0.0041,-0.0543 -0.07563,-0.034 -0.137957,-0.1074 -0.234612,-0.0801 -0.02584,-0.022 -0.05276,-0.0439 -0.07906,-0.0656 -0.0119,-0.0834 -0.07016,-0.14449 -0.122473,-0.20826 -0.05232,-0.0638 -0.09881,-0.13043 -0.08682,-0.22531 0.06857,-0.0956 0.04322,-0.16855 0,-0.23771 -0.04323,-0.0692 -0.104227,-0.13416 -0.106971,-0.2129 0.0349,-0.0599 0.0696,-0.12037 0.104386,-0.18035 0.134768,-0.18353 0.269412,-0.36681 0.404109,-0.55036 0.0697,-0.0563 0.142912,-0.0754 0.217559,-0.076 0.07465,-5.5e-4 0.150989,0.0177 0.227377,0.0367 0.09479,0.0845 0.171403,0.19056 0.294037,0.24133 0.02437,0.0386 0.06004,0.11058 0.09457,0.0842 0.101375,-0.0773 0.198512,-0.0811 0.294558,-0.0615 0.09604,0.0196 0.190728,0.0628 0.286803,0.0785 0.04175,0.11046 0.100828,0.18908 0.176218,0.23875 0.07539,0.0497 0.167352,0.0701 0.273884,0.0636 0.01653,-0.0248 0.03298,-0.0492 0.04961,-0.0739 -0.133213,-0.097 -0.266735,-0.19388 -0.399976,-0.29094 0.028,-0.0974 0.0558,-0.19508 0.08372,-0.29249 -0.0021,-0.003 -0.0044,-0.006 -0.0072,-0.009 0.0018,-1.5e-4 0.0027,-1.7e-4 0.0057,-10e-4 l 0.0021,0.01 c 0.05172,-0.0119 0.103275,-0.0235 0.15503,-0.0351 0.06309,-0.004 0.09674,-0.0274 0.111622,-0.0615 0.01488,-0.0341 0.01138,-0.0782 -5.29e-4,-0.12196 -0.02548,-0.0935 -0.01005,-0.1643 0.02791,-0.22324 0.03797,-0.0589 0.09832,-0.10629 0.161254,-0.15243 0.08062,-0.0591 0.14166,-0.13299 0.182417,-0.21446 0.04076,-0.0815 0.0613,-0.17058 0.06149,-0.25942 1.92e-4,-0.0888 -0.02042,-0.17768 -0.06149,-0.2589 -0.04107,-0.0812 -0.102479,-0.15482 -0.185519,-0.21341 -0.106439,-0.075 -0.231449,-0.1718 -0.230994,-0.26717 5.56e-4,-0.0934 -0.0066,-0.14709 -0.03256,-0.16484 -0.02595,-0.0178 -0.07091,7.9e-4 -0.14676,0.0527 -0.05575,0.038 -0.110078,0.0491 -0.155544,0.0367 -0.04547,-0.0124 -0.08198,-0.0487 -0.10077,-0.10594 -0.02453,-0.0748 -0.0086,-0.11072 0.0279,-0.13022 0.03649,-0.0195 0.09365,-0.0223 0.152448,-0.031 0.147881,-0.0219 0.304776,-0.12425 0.425812,-0.2527 0.121037,-0.12844 0.20614,-0.28316 0.209807,-0.41031 0.0024,-0.083 -0.06071,-0.17863 -0.0956,-0.27233 z m 7.695139,3.16878 c -0.04598,0.006 -0.09242,0.009 -0.138493,0.0129 -0.0039,0.0253 -0.0033,0.0472 0.0021,0.0656 l -5.29e-4,5.3e-4 c 0.01401,0.0558 0.06288,0.0816 0.125574,0.0667 0.05596,-0.0127 0.0678,-0.0359 0.06098,-0.0625 -0.0068,-0.0266 -0.03208,-0.0569 -0.04961,-0.0832 z m 0.444418,0.29301 c -8.6e-5,4.8e-4 -4.76e-4,7.4e-4 -5.29e-4,0.002 l 5.29e-4,5.1e-4 c 5.3e-4,8e-5 5.03e-4,-5.9e-4 10e-4,-5.1e-4 -5.7e-5,3.5e-4 5.8e-5,6.6e-4 0,0.001 6.35e-4,-2e-5 0.0012,-2.5e-4 0.0015,0 z m 0,0.003 c -0.09471,-0.0132 -0.146775,0.0267 -0.186551,0.0816 -0.04001,0.0553 -0.06812,0.12513 -0.11679,0.1695 l -5.03e-4,10e-4 c -0.0011,8.8e-4 0.02761,0.053 0.04392,0.0527 0.06827,0.002 0.100666,-0.0413 0.129709,-0.0889 0.02904,-0.0475 0.05486,-0.0996 0.111104,-0.1173 0.01552,-0.005 0.01388,-0.0629 0.01964,-0.0982 z m -2.516642,0.38344 c -0.03571,-0.002 -0.0629,0.0193 -0.08578,0.0496 -0.03052,0.0404 -0.05319,0.0977 -0.07751,0.14004 0.03935,0.1015 0.117351,0.1391 0.221692,0.1323 -0.01336,-0.053 0.01997,-0.11444 0.03772,-0.17105 0.01775,-0.0566 0.01954,-0.10828 -0.05736,-0.1416 -0.01393,-0.006 -0.02686,-0.009 -0.03876,-0.009 z m 0.701766,0.33538 c -0.05338,0.003 -0.109401,0.0325 -0.16485,0.0641 -0.03336,0.11042 -0.04746,0.1896 -0.03617,0.24856 0.01893,0.0982 0.108635,0.13908 0.298172,0.16899 0.07366,-0.0566 0.110212,-0.11861 0.116787,-0.18449 0.0066,-0.0659 -0.01669,-0.13574 -0.06356,-0.20774 -0.04597,-0.0706 -0.09699,-0.0927 -0.150378,-0.0894 z m 1.078485,0.26717 c -0.06461,0.0118 -0.08015,0.0378 -0.077,0.0692 0.0032,0.0311 0.0237,0.0674 0.03255,0.0997 0.01864,0.001 0.03793,0.002 0.05633,0.002 0.0184,-1.7e-4 0.03589,-0.002 0.05064,-0.007 0.0295,-0.011 0.04819,-0.0369 0.04238,-0.0951 -0.0051,-0.0514 -0.05702,-0.0776 -0.104905,-0.0687 z m -0.04444,0.16898 c -3.96e-4,-3e-5 -6.35e-4,-6e-5 -0.0016,0 -1.1e-5,-4e-5 -0.01033,0.0134 -0.01033,0.0134 l 0.01188,-0.0119 c -1.34e-4,-5e-4 3.5e-5,-0.001 0,-0.001 z m -1.700154,0.37517 c -0.03624,-0.007 -0.07404,-0.006 -0.113169,0.003 -0.06473,0.10603 -0.10105,0.18283 -0.105422,0.23926 -0.0073,0.0938 0.07418,0.13045 0.257867,0.14625 0.0512,-0.05 0.109772,-0.0984 0.134358,-0.15348 0.02459,-0.055 0.01526,-0.11661 -0.06925,-0.19224 -0.03349,-0.0219 -0.06815,-0.0362 -0.104386,-0.0429 z m 2.448947,1.23042 c -0.104823,0.011 -0.130138,0.0973 -0.130741,0.18448 -5.83e-4,0.0793 0.05053,0.11914 0.129191,0.10181 0.08165,-0.0183 0.128888,-0.0704 0.122473,-0.15968 -0.01422,-0.0676 -0.03898,-0.13488 -0.120923,-0.12661 z m -3.141408,0.34778 c -0.02671,-0.004 -0.04774,-0.003 -0.06408,0.004 -0.03269,0.0136 -0.04616,0.048 -0.04703,0.0961 -7.68e-4,0.032 0.0041,0.0702 0.01344,0.11266 0.04432,0.0649 0.09177,0.11742 0.176218,0.0558 0.05908,-0.0264 0.04201,-0.0834 0.05323,-0.12919 -0.01185,-0.0357 -0.02269,-0.072 -0.0341,-0.10749 -0.03857,-0.0172 -0.07096,-0.0277 -0.09767,-0.032 z m -1.70429,0.3421 c -0.09159,0.01 -0.14898,0.0591 -0.146762,0.12351 5.82e-4,0.0218 0.0089,0.0455 0.02481,0.0698 0.03731,0.0572 0.07259,0.0618 0.104904,0.0429 0.03231,-0.0189 0.06149,-0.0608 0.08681,-0.0966 l -0.0083,-0.0145 0.0057,-0.015 c -0.02249,-0.0364 -0.04486,-0.0735 -0.06718,-0.11007 z m 0.750857,0.031 c -0.0162,-8.2e-4 -0.03358,2.9e-4 -0.05064,0.003 -0.01162,0.0526 -0.02348,0.10555 -0.03514,0.15813 0.03572,0.005 0.07522,0.0123 0.106972,0.006 0.03175,-0.007 0.05592,-0.0274 0.06046,-0.0796 0.0057,-0.0639 -0.03306,-0.0844 -0.08165,-0.0868 z m -1.805059,0.047 c -0.08336,0.0121 -0.103605,0.0802 -0.105936,0.14573 -0.0031,0.0896 0.05566,0.14695 0.141594,0.13746 0.08739,-0.01 0.07865,-0.0896 0.0739,-0.15658 -0.01076,-0.0649 -0.01008,-0.14047 -0.109556,-0.12661 z m -0.808736,0.11782 c -0.0536,0.005 -0.07881,0.0343 -0.09147,0.0713 -0.01265,0.037 -0.01256,0.0826 -0.01602,0.12195 h -5.15e-4 c 0.0084,0.0845 0.03397,0.16269 0.12919,0.1509 0.106249,-0.0126 0.163965,-0.10059 0.154514,-0.19844 -0.0084,-0.0873 -0.08787,-0.15467 -0.175702,-0.14573 z m 3.854547,0.0124 c -0.102546,0.027 -0.167152,0.0891 -0.154512,0.20103 0.01212,0.10778 0.08872,0.13019 0.185518,0.1204 0.116165,-0.0114 0.170169,-0.0737 0.156062,-0.18758 -0.01361,-0.10691 -0.09703,-0.12597 -0.187068,-0.13385 z m 1.740979,0.0222 c -0.03204,-0.002 -0.06305,10e-4 -0.09199,0.01 -0.05786,0.0171 -0.107923,0.0574 -0.143142,0.13229 -0.01502,0.04 -0.02998,0.08 -0.04496,0.1199 0.07198,0.0924 0.08085,0.20251 0.09095,0.31315 0.0045,0.0508 0.0075,0.10319 0.02687,0.1447 0.01939,0.0415 0.05487,0.0721 0.123507,0.0801 0.03484,0.08 0.103738,0.0549 0.165365,0.0527 0.127201,-0.0656 0.173866,-0.15167 0.185518,-0.24857 0.01165,-0.0969 -0.01154,-0.20484 -0.02429,-0.31367 -0.0081,-0.0698 -0.02169,-0.12952 -0.05013,-0.17622 -0.02843,-0.0467 -0.07198,-0.08 -0.139009,-0.0977 -0.03359,-0.009 -0.06666,-0.0149 -0.0987,-0.0165 z m -6.10867198,0.30282 c -0.05945,0.002 -0.08509,0.0249 -0.08992,0.0672 -0.0048,0.0413 0.01076,0.075 0.05426,0.0822 0.05916,0.009 0.09001,-0.0316 0.09198,-0.0801 0.0012,-0.0352 -0.02764,-0.068 -0.05633,-0.0692 z M 0.564311,296.48498 c -0.118753,0.0433 -0.09882,0.16843 -0.125574,0.2558 l -0.001,5.3e-4 c 0.0064,0.063 0.0459,0.11814 0.08733,0.0894 0.07973,-0.0553 0.11513602,-0.15041 0.11575502,-0.25012 5.85e-4,-0.049 -0.02419,-0.11441 -0.07648,-0.0956 z m 5.847188,0.29869 c -0.01716,7.4e-4 -0.03125,0.007 -0.04341,0.0176 -0.02433,0.0209 -0.04029,0.0576 -0.05581,0.093 0.04756,0.0625 0.114483,0.0441 0.177249,0.0393 0.05684,-0.0517 0.0412,-0.10193 -0.01654,-0.13281 -0.0241,-0.0128 -0.04434,-0.0178 -0.0615,-0.017 z m -1.245403,0.0315 c -0.06563,-0.0143 -0.05831,0.0494 -0.06769,0.0899 0.01411,0.0325 0.02658,0.0705 0.04599,0.0868 0.01942,0.0163 0.04606,0.011 0.08837,-0.0429 -0.01667,-0.0482 -0.0022,-0.1196 -0.06666,-0.13385 z"
       style="opacity:1;fill:#e3b97e;fill-opacity:1;stroke:none;stroke-width:0.35483328;stroke-opacity:1" />
  </g>
</svg>
